<svg id="svg" xmlns="http://www.w3.org/2000/svg" xmlns:xlink="http://www.w3.org/1999/xlink" width="400" height="400" viewBox="0, 0, 400,400"><g id="svgg"><path id="path0" d="M189.063 40.401 L 189.063 63.614 178.190 64.624 C 131.434 68.970,105.469 94.444,105.469 135.970 C 105.469 176.068,126.933 196.711,178.516 206.222 L 189.063 208.166 189.063 253.484 L 189.063 298.802 178.516 297.726 C 156.270 295.457,134.094 288.292,115.393 277.332 C 110.272 274.330,105.769 271.875,105.385 271.875 C 105.001 271.875,104.688 280.231,104.688 290.444 L 104.688 309.013 116.016 313.216 C 133.279 319.620,156.991 324.956,173.047 326.050 L 187.500 327.034 187.517 350.626 C 187.527 363.602,187.970 376.855,188.503 380.078 L 189.471 385.938 199.423 385.938 L 209.375 385.938 209.375 356.465 L 209.375 326.993 218.359 325.954 C 270.520 319.921,296.006 295.266,296.066 250.781 C 296.119 211.505,276.832 191.565,227.734 180.135 L 209.375 175.861 209.375 134.805 L 209.375 93.750 215.691 93.750 C 228.635 93.750,253.006 100.421,275.391 110.091 C 277.904 111.177,278.125 109.828,278.125 93.377 L 278.125 75.482 266.797 72.215 C 254.224 68.590,234.057 64.783,219.141 63.218 L 209.375 62.193 209.375 39.690 L 209.375 17.188 199.219 17.188 L 189.063 17.188 189.063 40.401 M189.063 132.231 L 189.063 172.274 183.203 171.307 C 129.276 162.405,125.991 105.986,178.732 94.513 C 183.984 93.371,188.457 92.380,188.672 92.312 C 188.887 92.243,189.063 110.207,189.063 132.231 M219.539 214.620 C 272.981 228.853,270.872 288.871,216.670 296.300 L 209.375 297.300 209.375 254.900 C 209.375 231.580,209.902 212.508,210.547 212.519 C 211.191 212.529,215.238 213.474,219.539 214.620 " stroke="none" fill="#000000" fill-rule="evenodd"></path></g></svg>