<svg id="svg" xmlns="http://www.w3.org/2000/svg" xmlns:xlink="http://www.w3.org/1999/xlink" width="400" height="400" viewBox="0, 0, 400,400" version="1.1"><g id="svgg"><path id="path0" d="M42.399 75.965 C 19.172 83.392,19.167 116.834,42.392 124.007 C 47.424 125.562,352.544 125.572,357.572 124.018 C 381.137 116.735,380.759 82.845,357.034 75.806 C 352.562 74.479,46.563 74.634,42.399 75.965 M42.399 175.965 C 19.172 183.392,19.167 216.834,42.392 224.007 C 47.424 225.562,352.544 225.572,357.572 224.018 C 381.137 216.735,380.759 182.845,357.034 175.806 C 352.562 174.479,46.563 174.634,42.399 175.965 M42.399 275.965 C 19.172 283.392,19.167 316.834,42.392 324.007 C 47.424 325.562,352.544 325.572,357.572 324.018 C 381.137 316.735,380.759 282.845,357.034 275.806 C 352.562 274.479,46.563 274.634,42.399 275.965 " stroke="none" fill="#000000" fill-rule="evenodd"></path></g></svg>