<svg id="svg" xmlns="http://www.w3.org/2000/svg" xmlns:xlink="http://www.w3.org/1999/xlink" width="400" height="397.66990291262135" viewBox="0, 0, 400,397.66990291262135" version="1.1"><g id="svgg"><path id="path0" d="M54.187 35.664 L 51.650 37.931 51.650 49.709 L 51.650 61.487 54.187 63.753 L 56.724 66.019 224.830 66.019 C 406.076 66.019,395.859 66.273,398.021 61.717 C 399.717 58.142,399.717 41.275,398.021 37.701 C 395.859 33.144,406.076 33.398,224.830 33.398 L 56.724 33.398 54.187 35.664 M4.223 135.197 L 1.942 137.578 1.942 149.126 L 1.942 160.675 4.223 163.056 L 6.504 165.437 199.720 165.437 C 408.006 165.437,395.854 165.701,398.021 161.134 C 399.717 157.560,399.717 140.693,398.021 137.118 C 395.854 132.552,408.006 132.816,199.720 132.816 L 6.504 132.816 4.223 135.197 M318.263 215.933 C 282.965 222.017,271.101 266.576,298.808 289.001 C 306.303 295.067,315.992 298.252,326.949 298.252 L 333.204 298.252 333.204 328.872 L 333.204 359.492 335.594 361.882 C 339.876 366.165,346.642 364.737,348.785 359.098 C 349.218 357.961,349.515 331.758,349.515 294.707 L 349.515 232.233 357.670 232.233 L 365.825 232.233 365.830 293.786 C 365.835 365.577,365.678 364.272,374.301 364.272 C 383.191 364.272,382.913 366.524,382.913 294.498 L 382.913 232.442 388.203 232.063 C 398.690 231.313,403.121 222.132,395.495 216.957 C 393.199 215.399,326.492 214.515,318.263 215.933 M4.759 233.861 C -0.583 238.838,0.272 261.406,5.899 263.970 C 7.323 264.619,39.355 264.854,126.238 264.854 L 244.636 264.854 247.172 262.588 L 249.709 260.322 249.709 248.544 L 249.709 236.766 247.172 234.499 L 244.636 232.233 125.571 232.233 L 6.507 232.233 4.759 233.861 M5.672 332.580 C -0.419 335.523,-0.234 360.593,5.899 363.388 C 7.324 364.036,39.419 364.272,126.492 364.272 L 245.144 364.272 246.891 362.644 C 251.624 358.235,251.624 337.687,246.891 333.278 L 245.144 331.650 126.261 331.703 C 44.094 331.739,6.852 332.010,5.672 332.580 " stroke="none" fill="#000000" fill-rule="evenodd"></path></g></svg>