<svg id="svg" xmlns="http://www.w3.org/2000/svg" xmlns:xlink="http://www.w3.org/1999/xlink" width="400" height="451.12781954887214" viewBox="0, 0, 400,451.12781954887214" version="1.1"><g id="svgg"><path id="path0" d="M39.200 2.337 C 36.882 4.756,36.127 5.751,35.742 6.900 C 35.612 7.285,35.375 7.600,35.214 7.600 C 33.664 7.600,31.492 15.094,32.613 16.576 C 33.124 17.252,33.200 26.315,33.200 86.454 L 33.200 155.555 32.311 156.177 C 31.610 156.669,30.246 156.800,25.849 156.800 C 20.587 156.800,20.205 156.853,19.021 157.757 C 18.155 158.418,17.380 158.669,16.521 158.569 C 15.714 158.475,14.925 158.701,14.275 159.212 C 13.724 159.646,13.160 160.000,13.021 160.000 C 12.792 160.000,11.276 161.016,9.624 162.275 C 4.924 165.858,4.475 166.313,2.000 169.999 C 1.670 170.491,1.085 171.305,0.700 171.809 C 0.039 172.675,0.000 177.140,0.000 252.482 L 0.000 332.239 1.387 333.619 C 2.150 334.379,2.780 335.138,2.787 335.307 C 2.896 337.936,15.091 346.670,18.100 346.274 C 18.925 346.165,19.600 346.243,19.600 346.448 C 19.600 347.268,22.072 347.751,27.400 347.970 L 33.000 348.200 33.103 390.000 C 33.192 426.372,33.127 432.030,32.603 433.571 C 31.654 436.359,33.543 443.200,35.261 443.200 C 35.447 443.200,35.600 443.399,35.600 443.642 C 35.600 444.228,37.470 446.565,39.814 448.909 L 41.705 450.800 200.000 450.800 L 358.295 450.800 360.186 448.909 C 362.530 446.565,364.400 444.228,364.400 443.642 C 364.400 443.399,364.553 443.200,364.739 443.200 C 366.322 443.200,368.488 435.916,367.398 434.253 C 366.870 433.448,366.809 428.105,366.898 390.767 L 367.000 348.200 372.600 347.970 C 377.928 347.751,380.400 347.268,380.400 346.448 C 380.400 346.243,381.075 346.165,381.900 346.274 C 384.909 346.670,397.104 337.936,397.213 335.307 C 397.220 335.138,397.850 334.379,398.613 333.619 L 400.000 332.239 400.000 252.482 C 400.000 177.140,399.961 172.675,399.300 171.809 C 398.915 171.305,398.330 170.491,398.000 169.999 C 395.525 166.313,395.076 165.858,390.376 162.275 C 388.724 161.016,387.208 160.000,386.979 160.000 C 386.840 160.000,386.276 159.646,385.725 159.212 C 385.075 158.701,384.286 158.475,383.479 158.569 C 382.620 158.669,381.845 158.418,380.979 157.757 C 379.795 156.853,379.413 156.800,374.151 156.800 C 369.754 156.800,368.390 156.669,367.689 156.177 L 366.800 155.555 366.800 133.304 C 366.800 114.012,366.886 110.745,367.448 108.744 C 368.166 106.185,368.019 105.006,366.811 103.613 C 366.365 103.098,366.000 102.570,366.000 102.439 C 366.000 102.307,365.370 101.492,364.600 100.627 C 363.830 99.762,363.198 98.862,363.195 98.627 C 363.190 98.179,361.795 96.583,357.054 91.600 C 355.484 89.950,353.873 88.093,353.473 87.473 C 353.074 86.854,352.444 86.035,352.073 85.655 C 351.703 85.275,350.500 83.899,349.400 82.598 C 348.300 81.297,346.582 79.416,345.581 78.416 C 344.581 77.417,343.429 76.060,343.022 75.400 C 342.052 73.827,341.845 73.594,337.826 69.570 C 335.942 67.683,334.400 65.956,334.400 65.731 C 334.400 65.507,333.815 64.705,333.100 63.950 C 332.385 63.196,330.630 61.243,329.200 59.612 C 327.770 57.980,325.698 55.735,324.595 54.623 C 323.492 53.510,322.224 52.017,321.777 51.305 C 320.911 49.923,316.463 44.867,313.775 42.208 C 312.881 41.323,311.834 40.093,311.448 39.474 C 310.582 38.082,309.835 37.160,307.862 35.047 C 305.899 32.945,302.614 29.302,301.479 27.968 C 300.995 27.400,299.880 26.079,299.000 25.032 C 298.120 23.985,296.164 21.839,294.653 20.264 C 293.143 18.689,291.225 16.500,290.391 15.400 C 289.558 14.300,288.299 12.770,287.594 12.000 C 286.890 11.230,284.938 9.094,283.257 7.254 C 281.575 5.414,279.525 3.209,278.700 2.354 C 277.875 1.499,277.200 0.620,277.200 0.400 C 277.200 0.134,237.647 0.007,159.300 0.021 L 41.400 0.042 39.200 2.337 M254.000 64.010 L 254.000 107.620 255.042 108.016 C 256.044 108.397,256.060 108.449,255.442 109.392 C 254.250 111.212,254.609 112.052,258.107 115.624 C 263.573 121.203,264.225 121.614,266.000 120.600 C 267.359 119.823,268.059 119.860,267.918 120.700 C 267.807 121.361,269.828 121.411,304.400 121.600 L 341.000 121.800 341.104 139.300 L 341.208 156.800 200.004 156.800 L 58.800 156.800 58.800 88.600 L 58.800 20.400 156.400 20.400 L 254.000 20.400 254.000 64.010 M81.404 192.787 C 81.062 193.865,84.569 194.292,96.282 194.597 C 97.867 194.638,99.397 194.848,99.682 195.064 C 100.671 195.813,103.535 196.503,104.571 196.243 C 105.323 196.054,105.856 196.207,106.482 196.791 C 107.001 197.274,107.899 197.600,108.712 197.600 C 109.468 197.600,110.526 197.956,111.091 198.400 C 111.650 198.840,112.444 199.200,112.854 199.200 C 113.264 199.200,113.600 199.348,113.600 199.529 C 113.600 199.709,114.455 200.249,115.500 200.727 C 118.604 202.148,124.000 206.802,124.000 208.058 C 124.000 208.466,124.151 208.800,124.335 208.800 C 124.519 208.800,125.374 210.172,126.235 211.849 C 127.096 213.526,128.025 214.986,128.300 215.092 C 128.593 215.205,128.800 216.001,128.800 217.014 C 128.800 218.017,129.052 218.995,129.400 219.343 C 129.730 219.673,130.000 220.596,130.000 221.395 C 130.000 222.193,130.203 224.141,130.450 225.723 C 131.093 229.830,130.197 241.220,129.084 243.108 C 128.540 244.029,128.381 244.803,128.555 245.674 C 128.750 246.649,128.629 247.045,128.002 247.484 C 127.561 247.793,127.197 248.440,127.192 248.923 C 127.188 249.405,126.693 250.534,126.092 251.432 C 125.492 252.329,124.417 253.937,123.704 255.004 C 122.653 256.577,118.831 260.563,118.326 260.612 C 118.257 260.619,117.210 261.251,116.000 262.017 C 112.721 264.092,112.346 264.308,110.552 265.142 C 109.645 265.564,108.794 266.086,108.661 266.301 C 108.528 266.516,107.969 266.607,107.419 266.501 C 106.820 266.387,105.843 266.650,104.986 267.155 C 104.199 267.620,103.070 268.003,102.477 268.006 C 101.363 268.012,99.037 268.728,98.016 269.379 C 97.695 269.583,96.705 269.717,95.816 269.675 C 92.389 269.515,87.400 270.542,87.397 271.408 C 87.394 272.248,86.638 272.320,81.400 271.975 C 80.300 271.902,78.111 271.992,76.535 272.176 C 73.711 272.504,73.668 272.495,73.535 271.554 C 73.349 270.241,71.247 269.932,70.924 271.171 C 70.802 271.636,70.379 272.000,69.960 272.000 C 69.549 272.000,68.310 272.842,67.207 273.871 L 65.200 275.742 65.200 296.671 L 65.200 317.600 55.200 317.600 L 45.200 317.600 45.200 257.049 C 45.200 209.081,45.304 196.418,45.700 196.112 C 46.862 195.214,55.213 194.535,71.000 194.055 L 79.400 193.800 79.305 192.900 C 79.224 192.142,79.403 192.000,80.432 192.000 C 81.465 192.000,81.615 192.122,81.404 192.787 M195.895 192.900 C 195.791 193.882,195.197 193.820,212.045 194.588 C 215.074 194.726,216.831 195.013,218.178 195.591 C 219.217 196.036,220.929 196.400,221.984 196.400 C 223.039 196.400,224.549 196.670,225.338 197.000 C 226.128 197.330,227.427 197.600,228.224 197.600 C 229.068 197.600,230.099 197.934,230.691 198.400 C 231.250 198.840,232.109 199.200,232.599 199.200 C 233.088 199.200,234.799 199.920,236.400 200.800 C 238.001 201.680,239.632 202.400,240.025 202.400 C 240.684 202.400,243.228 204.212,243.533 204.900 C 243.607 205.065,243.886 205.200,244.153 205.200 C 244.821 205.200,249.600 208.714,249.600 209.205 C 249.600 209.422,249.808 209.600,250.062 209.600 C 250.583 209.600,252.950 211.996,254.662 214.256 C 255.288 215.082,256.205 216.199,256.700 216.738 C 257.195 217.276,257.600 217.929,257.600 218.189 C 257.600 218.448,258.050 219.083,258.600 219.600 C 259.150 220.117,259.600 220.936,259.600 221.421 C 259.600 221.905,259.870 222.526,260.200 222.800 C 260.530 223.074,260.800 223.715,260.800 224.225 C 260.800 224.735,260.975 225.261,261.189 225.393 C 261.403 225.526,261.776 226.367,262.017 227.263 C 262.258 228.159,262.893 229.329,263.428 229.864 C 264.444 230.880,264.681 231.600,264.000 231.600 C 263.228 231.600,263.610 233.738,264.619 235.060 C 265.449 236.149,265.588 236.658,265.370 237.819 C 265.061 239.464,265.914 246.758,266.502 247.500 C 267.107 248.263,267.194 258.307,266.601 258.799 C 265.779 259.481,264.994 267.336,265.559 269.221 C 266.019 270.757,265.989 270.872,264.819 272.042 C 263.938 272.923,263.600 273.639,263.600 274.622 C 263.600 276.134,262.151 280.962,261.329 282.189 C 261.038 282.623,260.800 283.456,260.800 284.040 C 260.800 284.624,260.548 285.311,260.239 285.567 C 259.931 285.823,259.557 286.519,259.408 287.112 C 259.259 287.706,259.000 288.284,258.834 288.396 C 258.667 288.508,257.872 289.770,257.067 291.200 C 256.262 292.630,254.948 294.520,254.148 295.400 C 253.349 296.280,252.223 297.622,251.647 298.382 C 250.385 300.049,248.008 302.249,246.043 303.570 C 245.249 304.103,244.510 304.649,244.400 304.783 C 243.675 305.669,236.337 310.000,235.562 310.000 C 235.192 310.000,234.745 310.311,233.438 311.476 C 233.145 311.738,232.530 311.855,232.072 311.735 C 231.584 311.607,230.777 311.844,230.120 312.308 C 229.504 312.743,228.100 313.304,227.000 313.553 C 222.105 314.663,220.574 315.224,219.782 316.200 C 219.037 317.118,218.894 317.155,218.182 316.617 C 217.052 315.762,214.364 315.868,212.133 316.856 C 210.685 317.496,209.296 317.728,206.600 317.780 C 197.478 317.954,189.926 318.528,189.720 319.063 C 189.455 319.756,188.227 319.755,187.651 319.062 C 187.213 318.534,178.340 318.052,163.921 317.772 C 161.128 317.718,158.653 317.556,158.421 317.413 C 158.129 317.233,158.000 298.657,158.000 256.840 L 158.000 196.528 159.500 196.081 C 160.325 195.834,161.900 195.518,163.000 195.378 C 164.100 195.237,165.138 195.037,165.307 194.933 C 165.476 194.829,167.546 194.692,169.907 194.630 C 192.468 194.029,194.234 193.876,193.733 192.571 C 193.573 192.152,193.845 192.000,194.752 192.000 C 195.798 192.000,195.976 192.140,195.895 192.900 M366.400 202.190 L 366.400 209.581 343.543 209.690 C 321.483 209.796,320.671 209.827,320.243 210.568 C 320.000 210.991,319.170 212.052,318.400 212.927 L 317.000 214.517 316.886 229.445 C 316.760 246.017,316.516 244.380,319.475 246.845 C 320.165 247.419,320.700 248.229,320.665 248.645 C 320.602 249.374,321.329 249.407,342.000 249.600 L 363.400 249.800 363.400 256.800 L 363.400 263.800 342.400 264.000 C 321.700 264.197,320.400 264.281,320.400 265.424 C 320.400 265.741,320.244 266.000,320.054 266.000 C 319.863 266.000,319.053 266.840,318.254 267.866 L 316.800 269.731 316.800 293.666 L 316.800 317.600 306.200 317.600 L 295.600 317.600 295.600 256.200 L 295.600 194.800 331.000 194.800 L 366.400 194.800 366.400 202.190 M76.745 207.067 C 75.209 207.183,74.274 207.476,73.811 207.988 C 73.311 208.540,72.785 208.682,71.824 208.526 C 70.708 208.345,70.280 208.540,68.910 209.857 C 68.026 210.706,66.875 211.694,66.352 212.053 L 65.400 212.707 65.288 231.442 C 65.165 252.060,65.125 251.685,67.636 253.425 C 68.496 254.021,69.200 254.647,69.200 254.815 C 69.200 255.396,71.427 255.929,72.155 255.521 C 73.000 255.048,74.046 255.388,73.904 256.089 C 73.824 256.481,75.169 256.626,79.700 256.711 C 84.772 256.806,85.600 256.736,85.600 256.211 C 85.600 255.533,87.010 255.368,87.400 256.000 C 87.781 256.616,90.117 256.474,91.118 255.773 C 91.610 255.428,92.685 254.933,93.507 254.673 C 97.647 253.362,107.200 244.841,107.200 242.457 C 107.200 242.054,107.560 241.398,108.000 241.000 C 108.463 240.581,108.800 239.768,108.800 239.070 C 108.800 238.406,109.038 237.579,109.329 237.231 C 109.620 236.884,110.087 235.871,110.367 234.980 C 111.080 232.707,110.783 229.255,109.379 223.524 C 109.234 222.932,108.775 222.139,108.358 221.762 C 107.941 221.385,107.600 220.837,107.600 220.545 C 107.600 220.019,107.104 219.394,103.600 215.498 C 101.296 212.937,97.650 210.126,96.160 209.762 C 95.522 209.606,94.571 209.145,94.046 208.739 C 93.049 207.967,91.560 207.828,90.200 208.382 C 89.632 208.613,89.152 208.481,88.547 207.928 C 87.643 207.102,81.865 206.681,76.745 207.067 M192.911 207.649 C 192.664 207.896,192.549 208.322,192.654 208.596 C 192.995 209.485,191.140 209.612,189.972 208.780 C 188.294 207.585,183.600 207.966,183.600 209.297 C 183.600 209.500,182.700 210.571,181.600 211.676 L 179.600 213.687 179.600 256.252 L 179.600 298.817 182.320 301.520 L 185.040 304.224 195.420 304.277 C 204.699 304.325,206.032 304.249,207.986 303.565 C 209.189 303.144,210.539 302.796,210.986 302.791 C 211.434 302.786,212.250 302.430,212.800 302.000 C 213.350 301.570,214.261 301.214,214.824 301.209 C 215.386 301.204,216.196 300.936,216.624 300.613 C 217.051 300.290,217.725 300.020,218.122 300.013 C 218.519 300.006,219.904 299.280,221.200 298.400 C 222.496 297.520,223.680 296.800,223.832 296.800 C 224.277 296.800,231.663 289.901,231.912 289.253 C 232.037 288.927,232.423 288.364,232.769 288.001 C 235.535 285.108,238.400 281.022,238.400 279.971 C 238.400 279.615,238.770 278.989,239.222 278.580 C 239.734 278.117,240.002 277.444,239.934 276.793 C 239.870 276.184,240.194 275.280,240.712 274.621 C 241.200 274.000,241.600 273.102,241.600 272.626 C 241.600 272.150,241.753 271.589,241.941 271.380 C 242.695 270.540,243.277 267.213,243.010 265.270 C 242.804 263.777,242.891 263.033,243.353 262.329 C 244.725 260.235,244.560 246.040,243.153 245.171 C 242.848 244.983,242.773 244.327,242.939 243.292 C 243.114 242.199,242.947 240.969,242.406 239.351 C 241.974 238.058,241.615 236.711,241.610 236.358 C 241.604 236.006,241.150 235.231,240.600 234.638 C 240.050 234.044,239.600 233.124,239.600 232.592 C 239.600 231.487,238.359 228.936,237.234 227.729 C 236.816 227.280,236.110 226.212,235.666 225.356 C 234.634 223.369,231.764 220.313,228.200 217.406 C 224.467 214.361,224.397 214.313,222.579 213.456 C 221.711 213.047,220.730 212.562,220.400 212.379 C 217.567 210.807,214.652 209.600,213.687 209.600 C 213.047 209.600,211.910 209.294,211.161 208.919 C 209.193 207.936,205.459 207.738,204.217 208.552 C 202.972 209.368,201.025 209.433,201.326 208.649 C 201.742 207.564,200.657 207.200,197.000 207.200 C 194.843 207.200,193.177 207.383,192.911 207.649 M341.102 385.700 L 341.000 423.400 200.000 423.400 L 59.000 423.400 58.898 385.700 L 58.796 348.000 200.000 348.000 L 341.204 348.000 341.102 385.700 " stroke="none" fill="#040404" fill-rule="evenodd"></path><path id="path1" d="" stroke="none" fill="#080404" fill-rule="evenodd"></path><path id="path2" d="" stroke="none" fill="#080404" fill-rule="evenodd"></path><path id="path3" d="" stroke="none" fill="#080404" fill-rule="evenodd"></path><path id="path4" d="" stroke="none" fill="#080404" fill-rule="evenodd"></path><path id="path5" d="" stroke="none" fill="#080404" fill-rule="evenodd"></path><path id="path6" d="" stroke="none" fill="#080404" fill-rule="evenodd"></path><path id="path7" d="" stroke="none" fill="#080404" fill-rule="evenodd"></path><path id="path8" d="" stroke="none" fill="#080404" fill-rule="evenodd"></path></g></svg>