<svg id="svg" xmlns="http://www.w3.org/2000/svg" xmlns:xlink="http://www.w3.org/1999/xlink" width="400" height="400" viewBox="0, 0, 400,400" version="1.1"><g id="svgg"><path id="path0" d="M181.200 1.600 C 181.200 1.838,179.675 2.000,177.424 2.000 C 175.337 2.000,173.537 2.179,173.400 2.400 C 173.264 2.620,171.903 2.800,170.376 2.800 C 168.792 2.800,167.600 2.972,167.600 3.200 C 167.600 3.422,166.533 3.600,165.200 3.600 C 163.867 3.600,162.800 3.778,162.800 4.000 C 162.800 4.220,161.900 4.400,160.800 4.400 C 159.700 4.400,158.800 4.580,158.800 4.800 C 158.800 5.020,158.001 5.200,157.024 5.200 C 156.047 5.200,155.136 5.380,155.000 5.600 C 154.864 5.820,154.043 6.000,153.176 6.000 C 152.309 6.000,151.600 6.180,151.600 6.400 C 151.600 6.620,150.880 6.800,150.000 6.800 C 149.120 6.800,148.400 6.980,148.400 7.200 C 148.400 7.420,147.781 7.600,147.024 7.600 C 146.267 7.600,145.536 7.780,145.400 8.000 C 145.264 8.220,144.623 8.400,143.976 8.400 C 143.329 8.400,142.800 8.580,142.800 8.800 C 142.800 9.020,142.181 9.200,141.424 9.200 C 140.667 9.200,139.936 9.380,139.800 9.600 C 139.664 9.820,139.124 10.000,138.600 10.000 C 138.076 10.000,137.536 10.180,137.400 10.400 C 137.264 10.620,136.623 10.800,135.976 10.800 C 135.329 10.800,134.800 10.980,134.800 11.200 C 134.800 11.420,134.438 11.600,133.995 11.600 C 133.552 11.600,132.832 11.780,132.395 12.000 C 131.958 12.220,131.242 12.580,130.805 12.800 C 130.368 13.020,129.648 13.200,129.205 13.200 C 128.762 13.200,128.400 13.380,128.400 13.600 C 128.400 13.820,127.860 14.000,127.200 14.000 C 126.540 14.000,126.000 14.180,126.000 14.400 C 126.000 14.620,125.640 14.800,125.200 14.800 C 124.760 14.800,124.400 14.980,124.400 15.200 C 124.400 15.420,123.961 15.600,123.424 15.600 C 122.887 15.600,122.336 15.780,122.200 16.000 C 122.064 16.220,121.603 16.400,121.176 16.400 C 120.749 16.400,120.400 16.580,120.400 16.800 C 120.400 17.020,120.040 17.200,119.600 17.200 C 119.160 17.200,118.800 17.380,118.800 17.600 C 118.800 17.820,118.361 18.000,117.824 18.000 C 117.287 18.000,116.736 18.180,116.600 18.400 C 116.464 18.620,116.003 18.800,115.576 18.800 C 115.149 18.800,114.800 18.980,114.800 19.200 C 114.800 19.420,114.440 19.600,114.000 19.600 C 113.560 19.600,113.200 19.780,113.200 20.000 C 113.200 20.220,112.840 20.400,112.400 20.400 C 111.960 20.400,111.600 20.580,111.600 20.800 C 111.600 21.020,111.240 21.200,110.800 21.200 C 110.360 21.200,110.000 21.380,110.000 21.600 C 110.000 21.820,109.640 22.000,109.200 22.000 C 108.760 22.000,108.400 22.180,108.400 22.400 C 108.400 22.620,108.040 22.800,107.600 22.800 C 107.160 22.800,106.800 22.980,106.800 23.200 C 106.800 23.420,106.440 23.600,106.000 23.600 C 105.560 23.600,105.200 23.780,105.200 24.000 C 105.200 24.220,104.922 24.400,104.583 24.400 C 104.244 24.400,103.580 24.760,103.108 25.200 C 102.636 25.640,102.013 26.000,101.725 26.000 C 101.436 26.000,101.200 26.180,101.200 26.400 C 101.200 26.620,100.840 26.800,100.400 26.800 C 99.960 26.800,99.600 26.980,99.600 27.200 C 99.600 27.420,99.322 27.600,98.983 27.600 C 98.644 27.600,97.980 27.960,97.508 28.400 C 97.036 28.840,96.413 29.200,96.125 29.200 C 95.836 29.200,95.600 29.380,95.600 29.600 C 95.600 29.820,95.280 30.000,94.888 30.000 C 94.497 30.000,93.917 30.360,93.600 30.800 C 93.283 31.240,92.703 31.600,92.312 31.600 C 91.920 31.600,91.600 31.750,91.600 31.932 C 91.600 32.115,91.105 32.520,90.500 32.832 C 89.895 33.145,89.051 33.715,88.625 34.100 C 88.198 34.485,87.613 34.800,87.325 34.800 C 87.036 34.800,86.800 34.950,86.800 35.132 C 86.800 35.315,86.305 35.719,85.700 36.030 C 85.095 36.340,84.309 36.911,83.953 37.297 C 83.597 37.684,83.129 38.000,82.912 38.000 C 82.696 38.000,81.954 38.540,81.263 39.200 C 80.572 39.860,79.808 40.400,79.564 40.400 C 79.320 40.400,78.617 40.940,78.000 41.600 C 77.383 42.260,76.703 42.800,76.488 42.800 C 76.273 42.800,75.355 43.520,74.448 44.400 C 73.541 45.280,72.635 46.000,72.434 46.000 C 72.234 46.000,70.973 47.080,69.632 48.400 C 68.292 49.720,67.019 50.800,66.805 50.800 C 66.295 50.800,50.000 67.095,50.000 67.605 C 50.000 67.819,48.920 69.092,47.600 70.432 C 46.280 71.773,45.200 73.034,45.200 73.234 C 45.200 73.435,44.480 74.341,43.600 75.248 C 42.720 76.155,42.000 77.073,42.000 77.288 C 42.000 77.503,41.460 78.183,40.800 78.800 C 40.140 79.417,39.600 80.120,39.600 80.364 C 39.600 80.608,39.060 81.372,38.400 82.063 C 37.740 82.754,37.200 83.522,37.200 83.771 C 37.200 84.020,36.840 84.483,36.400 84.800 C 35.960 85.117,35.600 85.657,35.600 86.000 C 35.600 86.343,35.240 86.883,34.800 87.200 C 34.360 87.517,34.000 87.973,34.000 88.213 C 34.000 88.453,33.685 88.998,33.300 89.425 C 32.915 89.851,32.345 90.695,32.032 91.300 C 31.720 91.905,31.315 92.400,31.132 92.400 C 30.950 92.400,30.800 92.720,30.800 93.112 C 30.800 93.503,30.440 94.083,30.000 94.400 C 29.560 94.717,29.200 95.297,29.200 95.688 C 29.200 96.080,29.020 96.400,28.800 96.400 C 28.580 96.400,28.400 96.636,28.400 96.925 C 28.400 97.213,28.040 97.836,27.600 98.308 C 27.160 98.780,26.800 99.444,26.800 99.783 C 26.800 100.122,26.620 100.400,26.400 100.400 C 26.180 100.400,26.000 100.760,26.000 101.200 C 26.000 101.640,25.820 102.000,25.600 102.000 C 25.380 102.000,25.200 102.236,25.200 102.525 C 25.200 102.813,24.840 103.436,24.400 103.908 C 23.960 104.380,23.600 105.044,23.600 105.383 C 23.600 105.722,23.420 106.000,23.200 106.000 C 22.980 106.000,22.800 106.360,22.800 106.800 C 22.800 107.240,22.620 107.600,22.400 107.600 C 22.180 107.600,22.000 107.960,22.000 108.400 C 22.000 108.840,21.820 109.200,21.600 109.200 C 21.380 109.200,21.200 109.560,21.200 110.000 C 21.200 110.440,21.020 110.800,20.800 110.800 C 20.580 110.800,20.400 111.160,20.400 111.600 C 20.400 112.040,20.220 112.400,20.000 112.400 C 19.780 112.400,19.600 112.760,19.600 113.200 C 19.600 113.640,19.420 114.000,19.200 114.000 C 18.980 114.000,18.800 114.360,18.800 114.800 C 18.800 115.240,18.620 115.600,18.400 115.600 C 18.180 115.600,18.000 115.949,18.000 116.376 C 18.000 116.803,17.820 117.264,17.600 117.400 C 17.380 117.536,17.200 118.087,17.200 118.624 C 17.200 119.161,17.020 119.600,16.800 119.600 C 16.580 119.600,16.400 119.960,16.400 120.400 C 16.400 120.840,16.220 121.200,16.000 121.200 C 15.780 121.200,15.600 121.549,15.600 121.976 C 15.600 122.403,15.420 122.864,15.200 123.000 C 14.980 123.136,14.800 123.687,14.800 124.224 C 14.800 124.761,14.620 125.200,14.400 125.200 C 14.180 125.200,14.000 125.560,14.000 126.000 C 14.000 126.440,13.820 126.800,13.600 126.800 C 13.380 126.800,13.200 127.340,13.200 128.000 C 13.200 128.660,13.020 129.200,12.800 129.200 C 12.580 129.200,12.400 129.562,12.400 130.005 C 12.400 130.448,12.192 131.213,11.938 131.705 C 10.942 133.631,10.800 134.017,10.800 134.795 C 10.800 135.238,10.620 135.600,10.400 135.600 C 10.180 135.600,10.000 136.129,10.000 136.776 C 10.000 137.423,9.820 138.064,9.600 138.200 C 9.380 138.336,9.200 138.876,9.200 139.400 C 9.200 139.924,9.020 140.464,8.800 140.600 C 8.580 140.736,8.400 141.467,8.400 142.224 C 8.400 142.981,8.220 143.600,8.000 143.600 C 7.780 143.600,7.600 144.129,7.600 144.776 C 7.600 145.423,7.420 146.064,7.200 146.200 C 6.980 146.336,6.800 147.067,6.800 147.824 C 6.800 148.581,6.620 149.200,6.400 149.200 C 6.180 149.200,6.000 149.920,6.000 150.800 C 6.000 151.680,5.820 152.400,5.600 152.400 C 5.380 152.400,5.200 153.109,5.200 153.976 C 5.200 154.843,5.020 155.664,4.800 155.800 C 4.580 155.936,4.400 156.847,4.400 157.824 C 4.400 158.801,4.220 159.600,4.000 159.600 C 3.780 159.600,3.600 160.500,3.600 161.600 C 3.600 162.700,3.420 163.600,3.200 163.600 C 2.978 163.600,2.800 164.667,2.800 166.000 C 2.800 167.333,2.622 168.400,2.400 168.400 C 2.172 168.400,2.000 169.592,2.000 171.176 C 2.000 172.703,1.820 174.064,1.600 174.200 C 1.379 174.337,1.200 176.137,1.200 178.224 C 1.200 180.475,1.038 182.000,0.800 182.000 C 0.539 182.000,0.400 188.267,0.400 200.000 C 0.400 211.733,0.539 218.000,0.800 218.000 C 1.038 218.000,1.200 219.525,1.200 221.776 C 1.200 223.863,1.379 225.663,1.600 225.800 C 1.820 225.936,2.000 227.297,2.000 228.824 C 2.000 230.408,2.172 231.600,2.400 231.600 C 2.622 231.600,2.800 232.667,2.800 234.000 C 2.800 235.333,2.978 236.400,3.200 236.400 C 3.420 236.400,3.600 237.300,3.600 238.400 C 3.600 239.500,3.780 240.400,4.000 240.400 C 4.220 240.400,4.400 241.199,4.400 242.176 C 4.400 243.153,4.580 244.064,4.800 244.200 C 5.020 244.336,5.200 245.157,5.200 246.024 C 5.200 246.891,5.380 247.600,5.600 247.600 C 5.820 247.600,6.000 248.320,6.000 249.200 C 6.000 250.080,6.180 250.800,6.400 250.800 C 6.620 250.800,6.800 251.419,6.800 252.176 C 6.800 252.933,6.980 253.664,7.200 253.800 C 7.420 253.936,7.600 254.577,7.600 255.224 C 7.600 255.871,7.780 256.400,8.000 256.400 C 8.220 256.400,8.400 257.019,8.400 257.776 C 8.400 258.533,8.580 259.264,8.800 259.400 C 9.020 259.536,9.200 260.076,9.200 260.600 C 9.200 261.124,9.380 261.664,9.600 261.800 C 9.820 261.936,10.000 262.577,10.000 263.224 C 10.000 263.871,10.180 264.400,10.400 264.400 C 10.620 264.400,10.800 264.762,10.800 265.205 C 10.800 265.648,10.980 266.368,11.200 266.805 C 11.420 267.242,11.780 267.958,12.000 268.395 C 12.220 268.832,12.400 269.552,12.400 269.995 C 12.400 270.438,12.580 270.800,12.800 270.800 C 13.020 270.800,13.200 271.340,13.200 272.000 C 13.200 272.660,13.380 273.200,13.600 273.200 C 13.820 273.200,14.000 273.560,14.000 274.000 C 14.000 274.440,14.180 274.800,14.400 274.800 C 14.620 274.800,14.800 275.239,14.800 275.776 C 14.800 276.313,14.980 276.864,15.200 277.000 C 15.420 277.136,15.600 277.597,15.600 278.024 C 15.600 278.451,15.780 278.800,16.000 278.800 C 16.220 278.800,16.400 279.160,16.400 279.600 C 16.400 280.040,16.580 280.400,16.800 280.400 C 17.020 280.400,17.200 280.839,17.200 281.376 C 17.200 281.913,17.380 282.464,17.600 282.600 C 17.820 282.736,18.000 283.197,18.000 283.624 C 18.000 284.051,18.180 284.400,18.400 284.400 C 18.620 284.400,18.800 284.760,18.800 285.200 C 18.800 285.640,18.980 286.000,19.200 286.000 C 19.420 286.000,19.600 286.360,19.600 286.800 C 19.600 287.240,19.780 287.600,20.000 287.600 C 20.220 287.600,20.400 287.960,20.400 288.400 C 20.400 288.840,20.580 289.200,20.800 289.200 C 21.020 289.200,21.200 289.560,21.200 290.000 C 21.200 290.440,21.380 290.800,21.600 290.800 C 21.820 290.800,22.000 291.160,22.000 291.600 C 22.000 292.040,22.180 292.400,22.400 292.400 C 22.620 292.400,22.800 292.760,22.800 293.200 C 22.800 293.640,22.980 294.000,23.200 294.000 C 23.420 294.000,23.600 294.278,23.600 294.617 C 23.600 294.956,23.960 295.620,24.400 296.092 C 24.840 296.564,25.200 297.187,25.200 297.475 C 25.200 297.764,25.380 298.000,25.600 298.000 C 25.820 298.000,26.000 298.360,26.000 298.800 C 26.000 299.240,26.180 299.600,26.400 299.600 C 26.620 299.600,26.800 299.878,26.800 300.217 C 26.800 300.556,27.160 301.220,27.600 301.692 C 28.040 302.164,28.400 302.787,28.400 303.075 C 28.400 303.364,28.580 303.600,28.800 303.600 C 29.020 303.600,29.200 303.920,29.200 304.312 C 29.200 304.703,29.560 305.283,30.000 305.600 C 30.440 305.917,30.800 306.497,30.800 306.888 C 30.800 307.280,30.950 307.600,31.132 307.600 C 31.315 307.600,31.720 308.095,32.032 308.700 C 32.345 309.305,32.915 310.149,33.300 310.575 C 33.685 311.002,34.000 311.547,34.000 311.787 C 34.000 312.027,34.360 312.483,34.800 312.800 C 35.240 313.117,35.600 313.657,35.600 314.000 C 35.600 314.343,35.960 314.883,36.400 315.200 C 36.840 315.517,37.200 315.980,37.200 316.229 C 37.200 316.478,37.740 317.246,38.400 317.937 C 39.060 318.628,39.600 319.392,39.600 319.636 C 39.600 319.880,40.140 320.583,40.800 321.200 C 41.460 321.817,42.000 322.497,42.000 322.712 C 42.000 322.927,42.720 323.845,43.600 324.752 C 44.480 325.659,45.200 326.565,45.200 326.766 C 45.200 326.966,46.280 328.227,47.600 329.568 C 48.920 330.908,50.000 332.181,50.000 332.395 C 50.000 332.905,66.295 349.200,66.805 349.200 C 67.019 349.200,68.292 350.280,69.632 351.600 C 70.973 352.920,72.234 354.000,72.434 354.000 C 72.635 354.000,73.541 354.720,74.448 355.600 C 75.355 356.480,76.273 357.200,76.488 357.200 C 76.703 357.200,77.383 357.740,78.000 358.400 C 78.617 359.060,79.320 359.600,79.564 359.600 C 79.808 359.600,80.572 360.140,81.263 360.800 C 81.954 361.460,82.696 362.000,82.912 362.000 C 83.129 362.000,83.597 362.316,83.953 362.703 C 84.309 363.089,85.095 363.660,85.700 363.970 C 86.305 364.281,86.800 364.685,86.800 364.868 C 86.800 365.050,87.036 365.200,87.325 365.200 C 87.613 365.200,88.198 365.515,88.625 365.900 C 89.051 366.285,89.895 366.855,90.500 367.168 C 91.105 367.480,91.600 367.885,91.600 368.068 C 91.600 368.250,91.920 368.400,92.312 368.400 C 92.703 368.400,93.283 368.760,93.600 369.200 C 93.917 369.640,94.497 370.000,94.888 370.000 C 95.280 370.000,95.600 370.180,95.600 370.400 C 95.600 370.620,95.836 370.800,96.125 370.800 C 96.413 370.800,97.036 371.160,97.508 371.600 C 97.980 372.040,98.644 372.400,98.983 372.400 C 99.322 372.400,99.600 372.580,99.600 372.800 C 99.600 373.020,99.960 373.200,100.400 373.200 C 100.840 373.200,101.200 373.380,101.200 373.600 C 101.200 373.820,101.436 374.000,101.725 374.000 C 102.013 374.000,102.636 374.360,103.108 374.800 C 103.580 375.240,104.244 375.600,104.583 375.600 C 104.922 375.600,105.200 375.780,105.200 376.000 C 105.200 376.220,105.560 376.400,106.000 376.400 C 106.440 376.400,106.800 376.580,106.800 376.800 C 106.800 377.020,107.160 377.200,107.600 377.200 C 108.040 377.200,108.400 377.380,108.400 377.600 C 108.400 377.820,108.760 378.000,109.200 378.000 C 109.640 378.000,110.000 378.180,110.000 378.400 C 110.000 378.620,110.360 378.800,110.800 378.800 C 111.240 378.800,111.600 378.980,111.600 379.200 C 111.600 379.420,111.960 379.600,112.400 379.600 C 112.840 379.600,113.200 379.780,113.200 380.000 C 113.200 380.220,113.560 380.400,114.000 380.400 C 114.440 380.400,114.800 380.580,114.800 380.800 C 114.800 381.020,115.149 381.200,115.576 381.200 C 116.003 381.200,116.464 381.380,116.600 381.600 C 116.736 381.820,117.287 382.000,117.824 382.000 C 118.361 382.000,118.800 382.180,118.800 382.400 C 118.800 382.620,119.160 382.800,119.600 382.800 C 120.040 382.800,120.400 382.980,120.400 383.200 C 120.400 383.420,120.749 383.600,121.176 383.600 C 121.603 383.600,122.064 383.780,122.200 384.000 C 122.336 384.220,122.887 384.400,123.424 384.400 C 123.961 384.400,124.400 384.580,124.400 384.800 C 124.400 385.020,124.760 385.200,125.200 385.200 C 125.640 385.200,126.000 385.380,126.000 385.600 C 126.000 385.820,126.540 386.000,127.200 386.000 C 127.860 386.000,128.400 386.180,128.400 386.400 C 128.400 386.620,128.762 386.800,129.205 386.800 C 129.983 386.800,130.369 386.942,132.295 387.938 C 132.787 388.192,133.552 388.400,133.995 388.400 C 134.438 388.400,134.800 388.580,134.800 388.800 C 134.800 389.020,135.329 389.200,135.976 389.200 C 136.623 389.200,137.264 389.380,137.400 389.600 C 137.536 389.820,138.076 390.000,138.600 390.000 C 139.124 390.000,139.664 390.180,139.800 390.400 C 139.936 390.620,140.667 390.800,141.424 390.800 C 142.181 390.800,142.800 390.980,142.800 391.200 C 142.800 391.420,143.329 391.600,143.976 391.600 C 144.623 391.600,145.264 391.780,145.400 392.000 C 145.536 392.220,146.267 392.400,147.024 392.400 C 147.781 392.400,148.400 392.580,148.400 392.800 C 148.400 393.020,149.120 393.200,150.000 393.200 C 150.880 393.200,151.600 393.380,151.600 393.600 C 151.600 393.820,152.309 394.000,153.176 394.000 C 154.043 394.000,154.864 394.180,155.000 394.400 C 155.136 394.620,156.047 394.800,157.024 394.800 C 158.001 394.800,158.800 394.980,158.800 395.200 C 158.800 395.420,159.700 395.600,160.800 395.600 C 161.900 395.600,162.800 395.780,162.800 396.000 C 162.800 396.222,163.867 396.400,165.200 396.400 C 166.533 396.400,167.600 396.578,167.600 396.800 C 167.600 397.033,168.933 397.200,170.800 397.200 C 172.667 397.200,174.000 397.367,174.000 397.600 C 174.000 397.837,175.467 398.000,177.600 398.000 C 179.733 398.000,181.200 398.163,181.200 398.400 C 181.200 398.661,187.467 398.800,199.200 398.800 C 210.933 398.800,217.200 398.661,217.200 398.400 C 217.200 398.162,218.725 398.000,220.976 398.000 C 223.063 398.000,224.863 397.821,225.000 397.600 C 225.136 397.380,226.497 397.200,228.024 397.200 C 229.608 397.200,230.800 397.028,230.800 396.800 C 230.800 396.578,231.867 396.400,233.200 396.400 C 234.533 396.400,235.600 396.222,235.600 396.000 C 235.600 395.780,236.500 395.600,237.600 395.600 C 238.700 395.600,239.600 395.420,239.600 395.200 C 239.600 394.980,240.399 394.800,241.376 394.800 C 242.353 394.800,243.264 394.620,243.400 394.400 C 243.536 394.180,244.357 394.000,245.224 394.000 C 246.091 394.000,246.800 393.820,246.800 393.600 C 246.800 393.380,247.520 393.200,248.400 393.200 C 249.280 393.200,250.000 393.020,250.000 392.800 C 250.000 392.580,250.619 392.400,251.376 392.400 C 252.133 392.400,252.864 392.220,253.000 392.000 C 253.136 391.780,253.777 391.600,254.424 391.600 C 255.071 391.600,255.600 391.420,255.600 391.200 C 255.600 390.980,256.219 390.800,256.976 390.800 C 257.733 390.800,258.464 390.620,258.600 390.400 C 258.736 390.180,259.276 390.000,259.800 390.000 C 260.324 390.000,260.864 389.820,261.000 389.600 C 261.136 389.380,261.777 389.200,262.424 389.200 C 263.071 389.200,263.600 389.020,263.600 388.800 C 263.600 388.580,263.962 388.400,264.405 388.400 C 264.848 388.400,265.613 388.192,266.105 387.938 C 268.031 386.942,268.417 386.800,269.195 386.800 C 269.638 386.800,270.000 386.620,270.000 386.400 C 270.000 386.180,270.540 386.000,271.200 386.000 C 271.860 386.000,272.400 385.820,272.400 385.600 C 272.400 385.380,272.760 385.200,273.200 385.200 C 273.640 385.200,274.000 385.020,274.000 384.800 C 274.000 384.580,274.439 384.400,274.976 384.400 C 275.513 384.400,276.064 384.220,276.200 384.000 C 276.336 383.780,276.797 383.600,277.224 383.600 C 277.651 383.600,278.000 383.420,278.000 383.200 C 278.000 382.980,278.360 382.800,278.800 382.800 C 279.240 382.800,279.600 382.620,279.600 382.400 C 279.600 382.180,280.039 382.000,280.576 382.000 C 281.113 382.000,281.664 381.820,281.800 381.600 C 281.936 381.380,282.397 381.200,282.824 381.200 C 283.251 381.200,283.600 381.020,283.600 380.800 C 283.600 380.580,283.960 380.400,284.400 380.400 C 284.840 380.400,285.200 380.220,285.200 380.000 C 285.200 379.780,285.560 379.600,286.000 379.600 C 286.440 379.600,286.800 379.420,286.800 379.200 C 286.800 378.980,287.160 378.800,287.600 378.800 C 288.040 378.800,288.400 378.620,288.400 378.400 C 288.400 378.180,288.760 378.000,289.200 378.000 C 289.640 378.000,290.000 377.820,290.000 377.600 C 290.000 377.380,290.360 377.200,290.800 377.200 C 291.240 377.200,291.600 377.020,291.600 376.800 C 291.600 376.580,291.960 376.400,292.400 376.400 C 292.840 376.400,293.200 376.220,293.200 376.000 C 293.200 375.780,293.478 375.600,293.817 375.600 C 294.156 375.600,294.820 375.240,295.292 374.800 C 295.764 374.360,296.387 374.000,296.675 374.000 C 296.964 374.000,297.200 373.820,297.200 373.600 C 297.200 373.380,297.560 373.200,298.000 373.200 C 298.440 373.200,298.800 373.020,298.800 372.800 C 298.800 372.580,299.078 372.400,299.417 372.400 C 299.756 372.400,300.420 372.040,300.892 371.600 C 301.364 371.160,301.987 370.800,302.275 370.800 C 302.564 370.800,302.800 370.620,302.800 370.400 C 302.800 370.180,303.120 370.000,303.512 370.000 C 303.903 370.000,304.483 369.640,304.800 369.200 C 305.117 368.760,305.697 368.400,306.088 368.400 C 306.480 368.400,306.800 368.250,306.800 368.068 C 306.800 367.885,307.295 367.480,307.900 367.168 C 308.505 366.855,309.349 366.285,309.775 365.900 C 310.202 365.515,310.787 365.200,311.075 365.200 C 311.364 365.200,311.600 365.050,311.600 364.868 C 311.600 364.685,312.095 364.281,312.700 363.970 C 313.305 363.660,314.091 363.089,314.447 362.703 C 314.803 362.316,315.271 362.000,315.488 362.000 C 315.704 362.000,316.446 361.460,317.137 360.800 C 317.828 360.140,318.592 359.600,318.836 359.600 C 319.080 359.600,319.783 359.060,320.400 358.400 C 321.017 357.740,321.697 357.200,321.912 357.200 C 322.127 357.200,323.045 356.480,323.952 355.600 C 324.859 354.720,325.765 354.000,325.966 354.000 C 326.166 354.000,327.427 352.920,328.768 351.600 C 330.108 350.280,331.381 349.200,331.595 349.200 C 332.105 349.200,348.400 332.905,348.400 332.395 C 348.400 332.181,349.480 330.908,350.800 329.568 C 352.120 328.227,353.200 326.966,353.200 326.766 C 353.200 326.565,353.920 325.659,354.800 324.752 C 355.680 323.845,356.400 322.927,356.400 322.712 C 356.400 322.497,356.940 321.817,357.600 321.200 C 358.260 320.583,358.800 319.863,358.800 319.600 C 358.800 319.337,359.340 318.617,360.000 318.000 C 360.660 317.383,361.200 316.631,361.200 316.328 C 361.200 316.025,361.560 315.517,362.000 315.200 C 362.440 314.883,362.800 314.343,362.800 314.000 C 362.800 313.657,363.160 313.117,363.600 312.800 C 364.040 312.483,364.400 312.027,364.400 311.787 C 364.400 311.547,364.715 311.002,365.100 310.575 C 365.485 310.149,366.055 309.305,366.368 308.700 C 366.680 308.095,367.085 307.600,367.268 307.600 C 367.450 307.600,367.600 307.280,367.600 306.888 C 367.600 306.497,367.960 305.917,368.400 305.600 C 368.840 305.283,369.200 304.703,369.200 304.312 C 369.200 303.920,369.380 303.600,369.600 303.600 C 369.820 303.600,370.000 303.364,370.000 303.075 C 370.000 302.787,370.360 302.164,370.800 301.692 C 371.240 301.220,371.600 300.556,371.600 300.217 C 371.600 299.878,371.780 299.600,372.000 299.600 C 372.220 299.600,372.400 299.240,372.400 298.800 C 372.400 298.360,372.580 298.000,372.800 298.000 C 373.020 298.000,373.200 297.764,373.200 297.475 C 373.200 297.187,373.560 296.564,374.000 296.092 C 374.440 295.620,374.800 294.956,374.800 294.617 C 374.800 294.278,374.980 294.000,375.200 294.000 C 375.420 294.000,375.600 293.640,375.600 293.200 C 375.600 292.760,375.780 292.400,376.000 292.400 C 376.220 292.400,376.400 292.040,376.400 291.600 C 376.400 291.160,376.580 290.800,376.800 290.800 C 377.020 290.800,377.200 290.440,377.200 290.000 C 377.200 289.560,377.380 289.200,377.600 289.200 C 377.820 289.200,378.000 288.840,378.000 288.400 C 378.000 287.960,378.180 287.600,378.400 287.600 C 378.620 287.600,378.800 287.240,378.800 286.800 C 378.800 286.360,378.980 286.000,379.200 286.000 C 379.420 286.000,379.600 285.640,379.600 285.200 C 379.600 284.760,379.780 284.400,380.000 284.400 C 380.220 284.400,380.400 284.051,380.400 283.624 C 380.400 283.197,380.580 282.736,380.800 282.600 C 381.020 282.464,381.200 281.913,381.200 281.376 C 381.200 280.839,381.380 280.400,381.600 280.400 C 381.820 280.400,382.000 280.040,382.000 279.600 C 382.000 279.160,382.180 278.800,382.400 278.800 C 382.620 278.800,382.800 278.451,382.800 278.024 C 382.800 277.597,382.980 277.136,383.200 277.000 C 383.420 276.864,383.600 276.313,383.600 275.776 C 383.600 275.239,383.780 274.800,384.000 274.800 C 384.220 274.800,384.400 274.440,384.400 274.000 C 384.400 273.560,384.580 273.200,384.800 273.200 C 385.020 273.200,385.200 272.660,385.200 272.000 C 385.200 271.340,385.380 270.800,385.600 270.800 C 385.820 270.800,386.000 270.438,386.000 269.995 C 386.000 269.552,386.180 268.832,386.400 268.395 C 386.620 267.958,386.980 267.242,387.200 266.805 C 387.420 266.368,387.600 265.648,387.600 265.205 C 387.600 264.762,387.780 264.400,388.000 264.400 C 388.220 264.400,388.400 263.871,388.400 263.224 C 388.400 262.577,388.580 261.936,388.800 261.800 C 389.020 261.664,389.200 261.124,389.200 260.600 C 389.200 260.076,389.380 259.536,389.600 259.400 C 389.820 259.264,390.000 258.533,390.000 257.776 C 390.000 257.019,390.180 256.400,390.400 256.400 C 390.620 256.400,390.800 255.871,390.800 255.224 C 390.800 254.577,390.980 253.936,391.200 253.800 C 391.420 253.664,391.600 252.933,391.600 252.176 C 391.600 251.419,391.780 250.800,392.000 250.800 C 392.220 250.800,392.400 250.080,392.400 249.200 C 392.400 248.320,392.580 247.600,392.800 247.600 C 393.020 247.600,393.200 246.891,393.200 246.024 C 393.200 245.157,393.380 244.336,393.600 244.200 C 393.820 244.064,394.000 243.153,394.000 242.176 C 394.000 241.199,394.180 240.400,394.400 240.400 C 394.620 240.400,394.800 239.500,394.800 238.400 C 394.800 237.300,394.980 236.400,395.200 236.400 C 395.422 236.400,395.600 235.333,395.600 234.000 C 395.600 232.667,395.778 231.600,396.000 231.600 C 396.228 231.600,396.400 230.408,396.400 228.824 C 396.400 227.297,396.580 225.936,396.800 225.800 C 397.021 225.663,397.200 223.863,397.200 221.776 C 397.200 219.525,397.362 218.000,397.600 218.000 C 397.861 218.000,398.000 211.733,398.000 200.000 C 398.000 188.267,397.861 182.000,397.600 182.000 C 397.362 182.000,397.200 180.475,397.200 178.224 C 397.200 176.137,397.021 174.337,396.800 174.200 C 396.580 174.064,396.400 172.703,396.400 171.176 C 396.400 169.592,396.228 168.400,396.000 168.400 C 395.778 168.400,395.600 167.333,395.600 166.000 C 395.600 164.667,395.422 163.600,395.200 163.600 C 394.980 163.600,394.800 162.700,394.800 161.600 C 394.800 160.500,394.620 159.600,394.400 159.600 C 394.180 159.600,394.000 158.801,394.000 157.824 C 394.000 156.847,393.820 155.936,393.600 155.800 C 393.380 155.664,393.200 154.843,393.200 153.976 C 393.200 153.109,393.020 152.400,392.800 152.400 C 392.580 152.400,392.400 151.680,392.400 150.800 C 392.400 149.920,392.220 149.200,392.000 149.200 C 391.780 149.200,391.600 148.581,391.600 147.824 C 391.600 147.067,391.420 146.336,391.200 146.200 C 390.980 146.064,390.800 145.423,390.800 144.776 C 390.800 144.129,390.620 143.600,390.400 143.600 C 390.180 143.600,390.000 142.981,390.000 142.224 C 390.000 141.467,389.820 140.736,389.600 140.600 C 389.380 140.464,389.200 139.924,389.200 139.400 C 389.200 138.876,389.020 138.336,388.800 138.200 C 388.580 138.064,388.400 137.423,388.400 136.776 C 388.400 136.129,388.220 135.600,388.000 135.600 C 387.780 135.600,387.600 135.238,387.600 134.795 C 387.600 134.352,387.420 133.632,387.200 133.195 C 386.980 132.758,386.620 132.042,386.400 131.605 C 386.180 131.168,386.000 130.448,386.000 130.005 C 386.000 129.562,385.820 129.200,385.600 129.200 C 385.380 129.200,385.200 128.660,385.200 128.000 C 385.200 127.340,385.020 126.800,384.800 126.800 C 384.580 126.800,384.400 126.440,384.400 126.000 C 384.400 125.560,384.220 125.200,384.000 125.200 C 383.780 125.200,383.600 124.761,383.600 124.224 C 383.600 123.687,383.420 123.136,383.200 123.000 C 382.980 122.864,382.800 122.403,382.800 121.976 C 382.800 121.549,382.620 121.200,382.400 121.200 C 382.180 121.200,382.000 120.840,382.000 120.400 C 382.000 119.960,381.820 119.600,381.600 119.600 C 381.380 119.600,381.200 119.161,381.200 118.624 C 381.200 118.087,381.020 117.536,380.800 117.400 C 380.580 117.264,380.400 116.803,380.400 116.376 C 380.400 115.949,380.220 115.600,380.000 115.600 C 379.780 115.600,379.600 115.240,379.600 114.800 C 379.600 114.360,379.420 114.000,379.200 114.000 C 378.980 114.000,378.800 113.640,378.800 113.200 C 378.800 112.760,378.620 112.400,378.400 112.400 C 378.180 112.400,378.000 112.040,378.000 111.600 C 378.000 111.160,377.820 110.800,377.600 110.800 C 377.380 110.800,377.200 110.440,377.200 110.000 C 377.200 109.560,377.020 109.200,376.800 109.200 C 376.580 109.200,376.400 108.840,376.400 108.400 C 376.400 107.960,376.220 107.600,376.000 107.600 C 375.780 107.600,375.600 107.240,375.600 106.800 C 375.600 106.360,375.420 106.000,375.200 106.000 C 374.980 106.000,374.800 105.722,374.800 105.383 C 374.800 105.044,374.440 104.380,374.000 103.908 C 373.560 103.436,373.200 102.813,373.200 102.525 C 373.200 102.236,373.020 102.000,372.800 102.000 C 372.580 102.000,372.400 101.640,372.400 101.200 C 372.400 100.760,372.220 100.400,372.000 100.400 C 371.780 100.400,371.600 100.122,371.600 99.783 C 371.600 99.444,371.240 98.780,370.800 98.308 C 370.360 97.836,370.000 97.213,370.000 96.925 C 370.000 96.636,369.820 96.400,369.600 96.400 C 369.380 96.400,369.200 96.080,369.200 95.688 C 369.200 95.297,368.840 94.717,368.400 94.400 C 367.960 94.083,367.600 93.503,367.600 93.112 C 367.600 92.720,367.450 92.400,367.268 92.400 C 367.085 92.400,366.680 91.905,366.368 91.300 C 366.055 90.695,365.485 89.851,365.100 89.425 C 364.715 88.998,364.400 88.453,364.400 88.213 C 364.400 87.973,364.040 87.517,363.600 87.200 C 363.160 86.883,362.800 86.343,362.800 86.000 C 362.800 85.657,362.440 85.117,362.000 84.800 C 361.560 84.483,361.200 84.020,361.200 83.771 C 361.200 83.522,360.660 82.754,360.000 82.063 C 359.340 81.372,358.800 80.608,358.800 80.364 C 358.800 80.120,358.260 79.417,357.600 78.800 C 356.940 78.183,356.400 77.503,356.400 77.288 C 356.400 77.073,355.680 76.155,354.800 75.248 C 353.920 74.341,353.200 73.435,353.200 73.234 C 353.200 73.034,352.120 71.773,350.800 70.432 C 349.480 69.092,348.400 67.819,348.400 67.605 C 348.400 67.095,332.105 50.800,331.595 50.800 C 331.381 50.800,330.108 49.720,328.768 48.400 C 327.427 47.080,326.166 46.000,325.966 46.000 C 325.765 46.000,324.859 45.280,323.952 44.400 C 323.045 43.520,322.127 42.800,321.912 42.800 C 321.697 42.800,321.017 42.260,320.400 41.600 C 319.783 40.940,319.080 40.400,318.836 40.400 C 318.592 40.400,317.828 39.860,317.137 39.200 C 316.446 38.540,315.704 38.000,315.488 38.000 C 315.271 38.000,314.803 37.684,314.447 37.297 C 314.091 36.911,313.305 36.340,312.700 36.030 C 312.095 35.719,311.600 35.315,311.600 35.132 C 311.600 34.950,311.364 34.800,311.075 34.800 C 310.787 34.800,310.202 34.485,309.775 34.100 C 309.349 33.715,308.505 33.145,307.900 32.832 C 307.295 32.520,306.800 32.115,306.800 31.932 C 306.800 31.750,306.480 31.600,306.088 31.600 C 305.697 31.600,305.117 31.240,304.800 30.800 C 304.483 30.360,303.903 30.000,303.512 30.000 C 303.120 30.000,302.800 29.820,302.800 29.600 C 302.800 29.380,302.564 29.200,302.275 29.200 C 301.987 29.200,301.364 28.840,300.892 28.400 C 300.420 27.960,299.756 27.600,299.417 27.600 C 299.078 27.600,298.800 27.420,298.800 27.200 C 298.800 26.980,298.440 26.800,298.000 26.800 C 297.560 26.800,297.200 26.620,297.200 26.400 C 297.200 26.180,296.964 26.000,296.675 26.000 C 296.387 26.000,295.764 25.640,295.292 25.200 C 294.820 24.760,294.156 24.400,293.817 24.400 C 293.478 24.400,293.200 24.220,293.200 24.000 C 293.200 23.780,292.840 23.600,292.400 23.600 C 291.960 23.600,291.600 23.420,291.600 23.200 C 291.600 22.980,291.240 22.800,290.800 22.800 C 290.360 22.800,290.000 22.620,290.000 22.400 C 290.000 22.180,289.640 22.000,289.200 22.000 C 288.760 22.000,288.400 21.820,288.400 21.600 C 288.400 21.380,288.040 21.200,287.600 21.200 C 287.160 21.200,286.800 21.020,286.800 20.800 C 286.800 20.580,286.440 20.400,286.000 20.400 C 285.560 20.400,285.200 20.220,285.200 20.000 C 285.200 19.780,284.840 19.600,284.400 19.600 C 283.960 19.600,283.600 19.420,283.600 19.200 C 283.600 18.980,283.251 18.800,282.824 18.800 C 282.397 18.800,281.936 18.620,281.800 18.400 C 281.664 18.180,281.113 18.000,280.576 18.000 C 280.039 18.000,279.600 17.820,279.600 17.600 C 279.600 17.380,279.240 17.200,278.800 17.200 C 278.360 17.200,278.000 17.020,278.000 16.800 C 278.000 16.580,277.651 16.400,277.224 16.400 C 276.797 16.400,276.336 16.220,276.200 16.000 C 276.064 15.780,275.513 15.600,274.976 15.600 C 274.439 15.600,274.000 15.420,274.000 15.200 C 274.000 14.980,273.640 14.800,273.200 14.800 C 272.760 14.800,272.400 14.620,272.400 14.400 C 272.400 14.180,271.860 14.000,271.200 14.000 C 270.540 14.000,270.000 13.820,270.000 13.600 C 270.000 13.380,269.638 13.200,269.195 13.200 C 268.752 13.200,268.032 13.020,267.595 12.800 C 267.158 12.580,266.442 12.220,266.005 12.000 C 265.568 11.780,264.848 11.600,264.405 11.600 C 263.962 11.600,263.600 11.420,263.600 11.200 C 263.600 10.980,263.071 10.800,262.424 10.800 C 261.777 10.800,261.136 10.620,261.000 10.400 C 260.864 10.180,260.324 10.000,259.800 10.000 C 259.276 10.000,258.736 9.820,258.600 9.600 C 258.464 9.380,257.733 9.200,256.976 9.200 C 256.219 9.200,255.600 9.020,255.600 8.800 C 255.600 8.580,255.071 8.400,254.424 8.400 C 253.777 8.400,253.136 8.220,253.000 8.000 C 252.864 7.780,252.133 7.600,251.376 7.600 C 250.619 7.600,250.000 7.420,250.000 7.200 C 250.000 6.980,249.280 6.800,248.400 6.800 C 247.520 6.800,246.800 6.620,246.800 6.400 C 246.800 6.180,246.091 6.000,245.224 6.000 C 244.357 6.000,243.536 5.820,243.400 5.600 C 243.264 5.380,242.353 5.200,241.376 5.200 C 240.399 5.200,239.600 5.020,239.600 4.800 C 239.600 4.580,238.700 4.400,237.600 4.400 C 236.500 4.400,235.600 4.220,235.600 4.000 C 235.600 3.778,234.533 3.600,233.200 3.600 C 231.867 3.600,230.800 3.422,230.800 3.200 C 230.800 2.972,229.608 2.800,228.024 2.800 C 226.497 2.800,225.136 2.620,225.000 2.400 C 224.863 2.179,223.063 2.000,220.976 2.000 C 218.725 2.000,217.200 1.838,217.200 1.600 C 217.200 1.339,210.933 1.200,199.200 1.200 C 187.467 1.200,181.200 1.339,181.200 1.600 M216.400 3.158 C 224.990 3.929,234.185 5.355,242.200 7.158 C 243.080 7.356,244.430 7.641,245.200 7.793 C 245.970 7.944,247.050 8.211,247.600 8.387 C 248.150 8.563,249.410 8.922,250.400 9.185 C 254.598 10.300,264.067 13.249,265.800 13.981 C 266.240 14.167,267.230 14.536,268.000 14.800 C 268.770 15.064,269.850 15.467,270.400 15.694 C 270.950 15.921,271.760 16.245,272.200 16.414 C 272.640 16.582,273.853 17.098,274.896 17.560 C 275.938 18.022,276.888 18.400,277.007 18.400 C 277.530 18.400,288.722 23.807,292.400 25.836 C 293.830 26.625,295.983 27.810,297.184 28.468 C 298.385 29.126,299.853 30.011,300.446 30.433 C 301.039 30.855,301.635 31.200,301.772 31.200 C 302.617 31.200,321.106 44.274,324.213 47.068 C 324.661 47.471,326.191 48.785,327.613 49.988 C 334.617 55.914,344.637 65.946,349.600 72.003 C 350.590 73.212,351.727 74.560,352.127 75.000 C 354.963 78.123,368.000 96.544,368.000 97.429 C 368.000 97.565,368.345 98.161,368.767 98.754 C 369.189 99.347,370.074 100.815,370.732 102.016 C 371.390 103.217,372.575 105.370,373.364 106.800 C 376.287 112.098,380.629 121.401,382.746 126.900 C 382.937 127.395,383.279 128.250,383.506 128.800 C 383.733 129.350,384.136 130.430,384.400 131.200 C 384.664 131.970,385.033 132.960,385.219 133.400 C 385.951 135.133,388.900 144.602,390.015 148.800 C 390.278 149.790,390.630 151.050,390.797 151.600 C 390.964 152.150,391.312 153.590,391.570 154.800 C 391.828 156.010,392.196 157.720,392.387 158.600 C 393.136 162.042,394.229 168.126,394.760 171.800 C 398.143 195.217,397.346 218.598,392.387 241.400 C 392.196 242.280,391.828 243.990,391.570 245.200 C 391.312 246.410,390.964 247.850,390.797 248.400 C 390.630 248.950,390.278 250.210,390.015 251.200 C 388.900 255.398,385.951 264.867,385.219 266.600 C 385.033 267.040,384.664 268.030,384.400 268.800 C 383.848 270.409,383.492 271.350,382.854 272.900 C 382.604 273.505,382.238 274.405,382.041 274.900 C 380.191 279.534,375.836 288.718,373.364 293.200 C 372.575 294.630,371.390 296.783,370.732 297.984 C 370.074 299.185,369.189 300.653,368.767 301.246 C 368.345 301.839,368.000 302.435,368.000 302.571 C 368.000 303.456,354.963 321.877,352.127 325.000 C 351.727 325.440,350.590 326.788,349.600 327.997 C 344.586 334.115,334.724 343.990,327.613 350.010 C 326.191 351.215,324.661 352.529,324.213 352.932 C 321.106 355.726,302.617 368.800,301.772 368.800 C 301.635 368.800,301.039 369.145,300.446 369.567 C 299.853 369.989,298.295 370.921,296.984 371.636 C 295.673 372.352,293.880 373.353,293.000 373.860 C 288.951 376.191,277.295 381.654,272.100 383.654 C 271.605 383.844,270.795 384.163,270.300 384.363 C 267.421 385.523,263.070 387.008,255.600 389.379 C 247.397 391.982,234.949 394.609,224.200 396.006 C 210.697 397.760,190.100 397.921,177.200 396.373 C 170.220 395.535,163.589 394.446,157.800 393.187 C 156.920 392.996,155.210 392.628,154.000 392.370 C 152.790 392.112,151.350 391.764,150.800 391.597 C 150.250 391.430,148.990 391.078,148.000 390.815 C 142.025 389.228,131.923 385.943,128.000 384.309 C 127.450 384.080,126.640 383.755,126.200 383.586 C 125.760 383.418,124.547 382.902,123.504 382.440 C 122.462 381.978,121.512 381.600,121.393 381.600 C 120.870 381.600,109.678 376.193,106.000 374.164 C 104.570 373.375,102.417 372.190,101.216 371.532 C 100.015 370.874,98.547 369.989,97.954 369.567 C 97.361 369.145,96.765 368.800,96.628 368.800 C 95.783 368.800,77.294 355.726,74.187 352.932 C 73.739 352.529,72.209 351.215,70.787 350.012 C 63.783 344.086,53.763 334.054,48.800 327.997 C 47.810 326.788,46.673 325.440,46.273 325.000 C 43.437 321.877,30.400 303.456,30.400 302.571 C 30.400 302.435,30.055 301.839,29.633 301.246 C 29.211 300.653,28.326 299.185,27.668 297.984 C 27.010 296.783,25.825 294.630,25.036 293.200 C 22.556 288.704,17.873 278.820,16.413 275.000 C 16.245 274.560,15.903 273.705,15.654 273.100 C 14.799 271.026,14.480 270.198,14.000 268.800 C 13.736 268.030,13.367 267.040,13.181 266.600 C 12.449 264.867,9.500 255.398,8.385 251.200 C 8.122 250.210,7.770 248.950,7.603 248.400 C 7.436 247.850,7.088 246.410,6.830 245.200 C 6.572 243.990,6.204 242.280,6.013 241.400 C 5.264 237.958,4.171 231.874,3.640 228.200 C 0.872 209.037,0.872 190.963,3.640 171.800 C 4.171 168.126,5.264 162.042,6.013 158.600 C 6.204 157.720,6.572 156.010,6.830 154.800 C 7.088 153.590,7.436 152.150,7.603 151.600 C 7.770 151.050,8.122 149.790,8.385 148.800 C 9.500 144.602,12.449 135.133,13.181 133.400 C 13.367 132.960,13.736 131.970,14.000 131.200 C 14.264 130.430,14.643 129.395,14.840 128.900 C 15.038 128.405,15.380 127.550,15.600 127.000 C 15.820 126.450,16.162 125.595,16.359 125.100 C 18.209 120.466,22.564 111.282,25.036 106.800 C 25.825 105.370,27.010 103.217,27.668 102.016 C 28.326 100.815,29.211 99.347,29.633 98.754 C 30.055 98.161,30.400 97.565,30.400 97.429 C 30.400 96.544,43.437 78.123,46.273 75.000 C 46.673 74.560,47.810 73.212,48.800 72.003 C 53.763 65.946,63.783 55.914,70.787 49.988 C 72.209 48.785,73.739 47.471,74.187 47.068 C 77.294 44.274,95.783 31.200,96.628 31.200 C 96.765 31.200,97.361 30.855,97.954 30.433 C 98.547 30.011,100.015 29.126,101.216 28.468 C 102.417 27.810,104.570 26.625,106.000 25.836 C 109.678 23.807,120.870 18.400,121.393 18.400 C 121.512 18.400,122.462 18.022,123.504 17.560 C 126.643 16.170,128.040 15.610,130.400 14.800 C 131.170 14.536,132.160 14.167,132.600 13.981 C 134.333 13.249,143.802 10.300,148.000 9.185 C 148.990 8.922,150.250 8.570,150.800 8.403 C 151.350 8.236,152.790 7.888,154.000 7.630 C 155.210 7.372,156.920 7.004,157.800 6.813 C 159.333 6.480,161.203 6.122,166.000 5.246 C 167.210 5.025,169.460 4.667,171.000 4.449 C 172.540 4.232,175.108 3.862,176.707 3.627 C 178.307 3.392,180.827 3.187,182.307 3.170 C 183.788 3.154,185.810 2.990,186.800 2.805 C 189.135 2.369,210.444 2.624,216.400 3.158 M165.355 100.762 C 162.451 102.533,162.425 102.658,162.306 115.053 L 162.200 126.200 136.800 126.423 C 109.146 126.667,109.998 126.596,107.435 128.853 C 102.635 133.078,103.607 140.343,109.400 143.538 C 110.506 144.148,117.571 144.200,200.000 144.200 C 282.429 144.200,289.494 144.148,290.600 143.538 C 296.393 140.343,297.365 133.078,292.565 128.853 C 290.002 126.596,290.854 126.667,263.200 126.423 L 237.800 126.200 237.694 115.029 L 237.587 103.859 236.573 102.529 C 234.532 99.853,236.661 100.000,199.920 100.001 C 167.907 100.003,166.551 100.033,165.355 100.762 M221.964 115.756 C 222.272 116.128,222.388 117.953,222.313 121.256 L 222.200 126.200 200.000 126.200 L 177.800 126.200 177.687 121.256 C 177.533 114.469,174.839 115.200,200.000 115.200 C 217.873 115.200,221.580 115.294,221.964 115.756 M133.023 156.819 C 127.676 159.487,127.558 160.201,128.788 182.600 C 129.176 189.654,129.741 200.137,130.411 212.700 C 130.625 216.715,130.978 223.285,131.196 227.300 C 131.413 231.315,131.767 237.930,131.983 242.000 C 132.199 246.070,132.566 252.910,132.800 257.200 C 133.346 267.219,133.888 277.435,134.382 287.000 C 134.919 297.396,135.747 299.465,140.207 301.561 L 141.991 302.400 200.000 302.400 L 258.009 302.400 259.793 301.561 C 264.243 299.470,265.081 297.387,265.613 287.100 C 266.084 277.967,267.153 257.862,268.000 242.200 C 268.220 238.130,268.574 231.515,268.787 227.500 C 269.001 223.485,269.366 216.690,269.600 212.400 C 269.834 208.110,270.202 201.270,270.418 197.200 C 270.634 193.130,270.991 186.560,271.211 182.600 C 272.186 165.091,272.188 163.180,271.231 161.151 C 268.462 155.276,261.053 154.218,256.778 159.086 C 254.586 161.583,254.775 160.229,253.603 181.800 C 253.376 185.980,253.018 192.640,252.807 196.600 C 252.597 200.560,252.234 207.310,252.000 211.600 C 251.766 215.890,251.403 222.640,251.192 226.600 C 250.981 230.560,250.625 237.220,250.399 241.400 C 249.817 252.198,249.315 261.680,248.802 271.600 C 248.556 276.330,248.231 281.190,248.078 282.400 L 247.800 284.600 200.800 284.710 C 174.950 284.770,153.395 284.722,152.900 284.602 C 152.086 284.406,152.000 284.147,152.002 281.892 C 152.003 280.522,151.824 276.700,151.605 273.400 C 151.385 270.100,151.020 263.890,150.794 259.600 C 150.567 255.310,150.209 248.650,149.998 244.800 C 149.787 240.950,149.428 234.200,149.200 229.800 C 148.972 225.400,148.613 218.650,148.402 214.800 C 148.191 210.950,147.830 204.290,147.600 200.000 C 145.445 159.766,145.623 161.514,143.417 158.894 C 141.121 156.164,136.274 155.197,133.023 156.819 M177.205 159.076 C 176.070 159.309,174.125 160.600,173.113 161.791 C 171.383 163.828,171.394 161.537,172.805 223.200 C 172.999 231.670,173.267 244.180,173.401 251.000 C 173.671 264.689,173.862 266.028,175.889 268.395 C 179.301 272.381,184.820 272.031,187.723 267.644 C 189.450 265.034,189.435 268.429,187.996 205.600 C 187.797 196.910,187.526 184.490,187.395 178.000 C 187.263 171.510,186.969 165.462,186.742 164.561 C 185.783 160.745,181.386 158.217,177.205 159.076 M217.435 160.013 C 212.473 162.489,212.819 159.301,211.594 213.800 C 211.371 223.700,210.985 239.189,210.736 248.220 L 210.282 264.639 211.262 266.620 C 214.239 272.642,222.170 272.692,225.139 266.707 C 226.060 264.851,226.085 264.489,226.445 247.707 C 226.647 238.298,226.992 223.130,227.211 214.000 C 228.116 176.289,228.170 165.090,227.454 163.704 C 225.419 159.769,221.107 158.181,217.435 160.013 " stroke="none" fill="#040404" fill-rule="evenodd"></path><path id="path1" d="M186.800 2.805 C 185.810 2.990,183.788 3.154,182.307 3.170 C 180.827 3.187,178.307 3.392,176.707 3.627 C 175.108 3.862,172.540 4.232,171.000 4.449 C 169.460 4.667,167.210 5.025,166.000 5.246 C 161.203 6.122,159.333 6.480,157.800 6.813 C 156.920 7.004,155.210 7.372,154.000 7.630 C 152.790 7.888,151.350 8.236,150.800 8.403 C 150.250 8.570,148.990 8.922,148.000 9.185 C 143.802 10.300,134.333 13.249,132.600 13.981 C 132.160 14.167,131.170 14.536,130.400 14.800 C 128.040 15.610,126.643 16.170,123.504 17.560 C 122.462 18.022,121.512 18.400,121.393 18.400 C 120.870 18.400,109.678 23.807,106.000 25.836 C 104.570 26.625,102.417 27.810,101.216 28.468 C 100.015 29.126,98.547 30.011,97.954 30.433 C 97.361 30.855,96.765 31.200,96.628 31.200 C 95.783 31.200,77.294 44.274,74.187 47.068 C 73.739 47.471,72.209 48.785,70.787 49.988 C 63.783 55.914,53.763 65.946,48.800 72.003 C 47.810 73.212,46.673 74.560,46.273 75.000 C 43.437 78.123,30.400 96.544,30.400 97.429 C 30.400 97.565,30.055 98.161,29.633 98.754 C 29.211 99.347,28.326 100.815,27.668 102.016 C 27.010 103.217,25.825 105.370,25.036 106.800 C 22.564 111.282,18.209 120.466,16.359 125.100 C 16.162 125.595,15.820 126.450,15.600 127.000 C 15.380 127.550,15.038 128.405,14.840 128.900 C 14.643 129.395,14.264 130.430,14.000 131.200 C 13.736 131.970,13.367 132.960,13.181 133.400 C 12.449 135.133,9.500 144.602,8.385 148.800 C 8.122 149.790,7.770 151.050,7.603 151.600 C 7.436 152.150,7.088 153.590,6.830 154.800 C 6.572 156.010,6.204 157.720,6.013 158.600 C 5.653 160.256,5.076 163.263,4.422 166.900 C 0.660 187.814,0.660 212.186,4.422 233.100 C 5.076 236.737,5.653 239.744,6.013 241.400 C 6.204 242.280,6.572 243.990,6.830 245.200 C 7.088 246.410,7.436 247.850,7.603 248.400 C 7.770 248.950,8.122 250.210,8.385 251.200 C 9.500 255.398,12.449 264.867,13.181 266.600 C 13.367 267.040,13.736 268.030,14.000 268.800 C 14.480 270.198,14.799 271.026,15.654 273.100 C 15.903 273.705,16.245 274.560,16.413 275.000 C 17.873 278.820,22.556 288.704,25.036 293.200 C 25.825 294.630,27.010 296.783,27.668 297.984 C 28.326 299.185,29.211 300.653,29.633 301.246 C 30.055 301.839,30.400 302.435,30.400 302.571 C 30.400 303.456,43.437 321.877,46.273 325.000 C 46.673 325.440,47.810 326.788,48.800 327.997 C 53.763 334.054,63.783 344.086,70.787 350.012 C 72.209 351.215,73.739 352.529,74.187 352.932 C 77.294 355.726,95.783 368.800,96.628 368.800 C 96.765 368.800,97.361 369.145,97.954 369.567 C 98.547 369.989,100.015 370.874,101.216 371.532 C 102.417 372.190,104.570 373.375,106.000 374.164 C 109.678 376.193,120.870 381.600,121.393 381.600 C 121.512 381.600,122.462 381.978,123.504 382.440 C 124.547 382.902,125.760 383.418,126.200 383.586 C 126.640 383.755,127.450 384.080,128.000 384.309 C 131.923 385.943,142.025 389.228,148.000 390.815 C 148.990 391.078,150.250 391.430,150.800 391.597 C 151.350 391.764,152.790 392.112,154.000 392.370 C 155.210 392.628,156.920 392.996,157.800 393.187 C 180.402 398.102,206.096 398.838,229.600 395.244 C 237.772 393.995,249.126 391.433,255.600 389.379 C 263.070 387.008,267.421 385.523,270.300 384.363 C 270.795 384.163,271.605 383.844,272.100 383.654 C 277.295 381.654,288.951 376.191,293.000 373.860 C 293.880 373.353,295.673 372.352,296.984 371.636 C 298.295 370.921,299.853 369.989,300.446 369.567 C 301.039 369.145,301.635 368.800,301.772 368.800 C 302.617 368.800,321.106 355.726,324.213 352.932 C 324.661 352.529,326.191 351.215,327.613 350.010 C 334.724 343.990,344.586 334.115,349.600 327.997 C 350.590 326.788,351.727 325.440,352.127 325.000 C 354.963 321.877,368.000 303.456,368.000 302.571 C 368.000 302.435,368.345 301.839,368.767 301.246 C 369.189 300.653,370.074 299.185,370.732 297.984 C 371.390 296.783,372.575 294.630,373.364 293.200 C 375.836 288.718,380.191 279.534,382.041 274.900 C 382.238 274.405,382.604 273.505,382.854 272.900 C 383.492 271.350,383.848 270.409,384.400 268.800 C 384.664 268.030,385.033 267.040,385.219 266.600 C 385.951 264.867,388.900 255.398,390.015 251.200 C 390.278 250.210,390.630 248.950,390.797 248.400 C 390.964 247.850,391.312 246.410,391.570 245.200 C 391.828 243.990,392.196 242.280,392.387 241.400 C 397.346 218.598,398.143 195.217,394.760 171.800 C 394.229 168.126,393.136 162.042,392.387 158.600 C 392.196 157.720,391.828 156.010,391.570 154.800 C 391.312 153.590,390.964 152.150,390.797 151.600 C 390.630 151.050,390.278 149.790,390.015 148.800 C 388.900 144.602,385.951 135.133,385.219 133.400 C 385.033 132.960,384.664 131.970,384.400 131.200 C 384.136 130.430,383.733 129.350,383.506 128.800 C 383.279 128.250,382.937 127.395,382.746 126.900 C 380.629 121.401,376.287 112.098,373.364 106.800 C 372.575 105.370,371.390 103.217,370.732 102.016 C 370.074 100.815,369.189 99.347,368.767 98.754 C 368.345 98.161,368.000 97.565,368.000 97.429 C 368.000 96.544,354.963 78.123,352.127 75.000 C 351.727 74.560,350.590 73.212,349.600 72.003 C 344.637 65.946,334.617 55.914,327.613 49.988 C 326.191 48.785,324.661 47.471,324.213 47.068 C 321.106 44.274,302.617 31.200,301.772 31.200 C 301.635 31.200,301.039 30.855,300.446 30.433 C 299.853 30.011,298.385 29.126,297.184 28.468 C 295.983 27.810,293.830 26.625,292.400 25.836 C 288.722 23.807,277.530 18.400,277.007 18.400 C 276.888 18.400,275.938 18.022,274.896 17.560 C 273.853 17.098,272.640 16.582,272.200 16.414 C 271.760 16.245,270.950 15.921,270.400 15.694 C 269.850 15.467,268.770 15.064,268.000 14.800 C 267.230 14.536,266.240 14.167,265.800 13.981 C 264.067 13.249,254.598 10.300,250.400 9.185 C 249.410 8.922,248.150 8.563,247.600 8.387 C 247.050 8.211,245.970 7.944,245.200 7.793 C 244.430 7.641,243.080 7.356,242.200 7.158 C 234.185 5.355,224.990 3.929,216.400 3.158 C 210.444 2.624,189.135 2.369,186.800 2.805 M234.399 100.600 C 235.037 100.929,236.015 101.798,236.573 102.529 L 237.587 103.859 237.694 115.029 L 237.800 126.200 263.200 126.423 C 290.854 126.667,290.002 126.596,292.565 128.853 C 297.365 133.078,296.393 140.343,290.600 143.538 C 289.494 144.148,282.429 144.200,200.000 144.200 C 117.571 144.200,110.506 144.148,109.400 143.538 C 103.607 140.343,102.635 133.078,107.435 128.853 C 109.998 126.596,109.146 126.667,136.800 126.423 L 162.200 126.200 162.306 115.053 C 162.425 102.658,162.451 102.533,165.355 100.762 C 167.073 99.714,232.390 99.561,234.399 100.600 M178.036 115.756 C 177.728 116.128,177.612 117.953,177.687 121.256 L 177.800 126.200 200.000 126.200 L 222.200 126.200 222.313 121.256 C 222.467 114.469,225.161 115.200,200.000 115.200 C 182.127 115.200,178.420 115.294,178.036 115.756 M140.607 156.845 C 142.567 157.767,144.135 159.392,144.953 161.349 C 145.530 162.729,145.869 167.679,147.600 200.000 C 147.830 204.290,148.191 210.950,148.402 214.800 C 148.613 218.650,148.972 225.400,149.200 229.800 C 149.428 234.200,149.787 240.950,149.998 244.800 C 150.209 248.650,150.567 255.310,150.794 259.600 C 151.020 263.890,151.385 270.100,151.605 273.400 C 151.824 276.700,152.003 280.522,152.002 281.892 C 152.000 284.147,152.086 284.406,152.900 284.602 C 153.395 284.722,174.950 284.770,200.800 284.710 L 247.800 284.600 248.078 282.400 C 248.231 281.190,248.556 276.330,248.802 271.600 C 249.315 261.680,249.817 252.198,250.399 241.400 C 250.625 237.220,250.981 230.560,251.192 226.600 C 251.403 222.640,251.766 215.890,252.000 211.600 C 252.234 207.310,252.597 200.560,252.807 196.600 C 253.018 192.640,253.376 185.980,253.603 181.800 C 254.775 160.229,254.586 161.583,256.778 159.086 C 261.053 154.218,268.462 155.276,271.231 161.151 C 272.188 163.180,272.186 165.091,271.211 182.600 C 270.991 186.560,270.634 193.130,270.418 197.200 C 270.202 201.270,269.834 208.110,269.600 212.400 C 269.366 216.690,269.001 223.485,268.787 227.500 C 268.574 231.515,268.220 238.130,268.000 242.200 C 267.153 257.862,266.084 277.967,265.613 287.100 C 265.081 297.387,264.243 299.470,259.793 301.561 L 258.009 302.400 200.000 302.400 L 141.991 302.400 140.207 301.561 C 135.747 299.465,134.919 297.396,134.382 287.000 C 133.888 277.435,133.346 267.219,132.800 257.200 C 132.566 252.910,132.199 246.070,131.983 242.000 C 131.767 237.930,131.413 231.315,131.196 227.300 C 130.978 223.285,130.625 216.715,130.411 212.700 C 129.741 200.137,129.176 189.654,128.788 182.600 C 127.817 164.909,127.815 163.168,128.767 161.151 C 130.914 156.604,136.089 154.722,140.607 156.845 M183.371 160.104 C 186.923 162.584,187.097 163.357,187.395 178.000 C 187.526 184.490,187.797 196.910,187.996 205.600 C 189.435 268.429,189.450 265.034,187.723 267.644 C 184.820 272.031,179.301 272.381,175.889 268.395 C 173.862 266.028,173.671 264.689,173.401 251.000 C 173.267 244.180,172.999 231.670,172.805 223.200 C 171.394 161.537,171.383 163.828,173.113 161.791 C 175.664 158.789,180.376 158.014,183.371 160.104 M223.329 159.796 C 225.020 160.503,226.546 161.948,227.454 163.704 C 228.170 165.090,228.116 176.289,227.211 214.000 C 226.992 223.130,226.647 238.298,226.445 247.707 C 226.085 264.489,226.060 264.851,225.139 266.707 C 222.170 272.692,214.239 272.642,211.262 266.620 L 210.282 264.639 210.736 248.220 C 210.985 239.189,211.371 223.700,211.594 213.800 C 212.516 172.791,212.822 165.124,213.598 163.604 C 215.426 160.023,219.787 158.316,223.329 159.796 " stroke="none" fill="#fc0404" fill-rule="evenodd"></path></g></svg>