<svg id="svg" xmlns="http://www.w3.org/2000/svg" xmlns:xlink="http://www.w3.org/1999/xlink" width="400" height="400" viewBox="0, 0, 400,400" version="1.1"><g id="svgg"><path id="path0" d="M195.918 67.015 C 195.764 67.169,193.439 67.448,190.752 67.635 C 188.064 67.822,185.680 68.160,185.453 68.387 C 185.226 68.614,184.221 68.806,183.220 68.814 C 182.219 68.822,180.950 69.086,180.400 69.400 C 179.850 69.714,178.657 69.978,177.749 69.986 C 176.784 69.994,175.891 70.249,175.600 70.600 C 175.326 70.930,174.505 71.200,173.775 71.200 C 173.045 71.200,172.346 71.363,172.223 71.563 C 172.099 71.763,170.964 72.227,169.699 72.596 C 168.435 72.964,167.130 73.432,166.800 73.635 C 166.470 73.839,165.930 74.111,165.600 74.241 C 165.270 74.371,163.962 75.000,162.694 75.639 C 161.426 76.277,160.189 76.800,159.945 76.800 C 159.701 76.800,158.423 77.520,157.105 78.400 C 155.787 79.280,154.540 80.000,154.333 80.000 C 154.126 80.000,152.619 80.990,150.983 82.200 C 149.346 83.410,147.755 84.400,147.447 84.400 C 147.138 84.400,146.787 84.656,146.667 84.968 C 146.548 85.281,145.403 86.310,144.125 87.254 C 140.929 89.615,134.653 95.737,132.697 98.400 C 131.809 99.610,130.568 101.085,129.941 101.677 C 129.313 102.270,128.797 102.990,128.794 103.277 C 128.790 103.565,128.073 104.610,127.200 105.600 C 126.327 106.590,125.610 107.508,125.606 107.641 C 125.603 107.773,124.790 109.115,123.800 110.622 C 122.810 112.129,122.000 113.596,122.000 113.881 C 122.000 114.167,121.856 114.400,121.679 114.400 C 121.502 114.400,121.038 115.290,120.647 116.378 C 120.256 117.465,119.680 118.567,119.368 118.827 C 119.056 119.086,118.800 119.519,118.800 119.789 C 118.800 120.060,118.350 121.127,117.800 122.162 C 117.250 123.196,116.800 124.358,116.800 124.745 C 116.800 125.131,116.536 125.796,116.213 126.224 C 115.890 126.651,115.620 127.300,115.613 127.668 C 115.606 128.035,115.350 128.845,115.044 129.468 C 114.143 131.305,113.505 133.297,113.304 134.903 C 113.200 135.729,112.955 136.505,112.758 136.626 C 112.561 136.748,112.400 137.472,112.400 138.236 C 112.400 139.001,112.130 140.272,111.800 141.062 C 111.470 141.851,111.200 143.381,111.200 144.462 C 111.200 145.542,110.930 147.072,110.600 147.862 C 109.728 149.950,109.739 170.221,110.613 171.376 C 110.936 171.804,111.200 172.983,111.200 173.996 C 111.200 175.010,111.379 176.019,111.598 176.238 C 111.817 176.457,112.078 177.510,112.178 178.578 C 112.278 179.646,112.549 180.709,112.780 180.940 C 113.011 181.171,113.200 181.830,113.200 182.404 C 113.200 182.977,113.464 183.796,113.787 184.224 C 114.110 184.651,114.386 185.540,114.400 186.200 C 114.414 186.860,114.690 187.749,115.013 188.176 C 115.336 188.604,115.600 189.333,115.600 189.796 C 115.600 190.260,115.760 190.811,115.956 191.020 C 116.151 191.229,116.720 192.660,117.219 194.200 C 117.718 195.740,118.278 197.171,118.464 197.380 C 118.649 197.589,118.800 198.152,118.800 198.631 C 118.800 199.110,119.070 199.726,119.400 200.000 C 119.730 200.274,120.006 200.791,120.013 201.149 C 120.020 201.507,120.290 202.149,120.613 202.576 C 120.936 203.004,121.200 203.839,121.200 204.434 C 121.200 205.028,121.470 205.618,121.800 205.745 C 122.130 205.871,122.400 206.253,122.400 206.593 C 122.400 207.157,122.747 207.982,123.665 209.600 C 123.852 209.930,124.112 210.470,124.243 210.800 C 124.374 211.130,125.273 213.046,126.241 215.057 C 127.208 217.068,128.000 218.891,128.000 219.108 C 128.000 219.325,128.268 219.724,128.596 219.996 C 128.923 220.268,129.088 220.658,128.961 220.863 C 128.835 221.068,128.965 221.516,129.250 221.860 C 129.843 222.575,130.653 223.921,131.018 224.800 C 131.155 225.130,131.619 226.030,132.050 226.800 C 132.481 227.570,133.276 229.135,133.818 230.277 C 134.359 231.420,134.982 232.465,135.201 232.601 C 135.421 232.736,135.600 233.177,135.600 233.581 C 135.600 233.984,135.870 234.418,136.200 234.545 C 136.530 234.671,136.800 235.054,136.800 235.395 C 136.800 235.737,137.250 236.729,137.800 237.600 C 138.350 238.471,138.800 239.341,138.800 239.532 C 138.800 239.723,139.311 240.586,139.936 241.448 C 140.561 242.311,141.146 243.193,141.236 243.408 C 141.727 244.582,144.925 250.030,145.235 250.222 C 145.436 250.346,145.600 250.797,145.600 251.224 C 145.600 251.651,145.739 252.000,145.908 252.000 C 146.078 252.000,146.659 252.810,147.200 253.800 C 147.741 254.790,148.322 255.600,148.492 255.600 C 148.661 255.600,148.800 255.947,148.800 256.371 C 148.800 256.796,149.025 257.388,149.300 257.688 C 150.030 258.485,150.789 259.699,151.058 260.500 C 151.188 260.885,151.452 261.200,151.647 261.200 C 151.841 261.200,152.000 261.457,152.000 261.771 C 152.000 262.086,152.262 262.605,152.582 262.925 C 152.903 263.245,153.551 264.248,154.023 265.154 C 154.495 266.059,155.043 266.800,155.240 266.800 C 155.438 266.800,155.600 267.082,155.600 267.427 C 155.600 267.771,156.050 268.643,156.600 269.364 C 157.150 270.086,157.600 270.813,157.600 270.980 C 157.600 271.148,158.140 271.967,158.800 272.800 C 159.460 273.633,160.000 274.492,160.000 274.709 C 160.000 274.925,160.253 275.312,160.563 275.569 C 160.873 275.826,161.418 276.614,161.774 277.318 C 162.657 279.065,163.210 279.945,164.500 281.656 C 165.105 282.459,165.600 283.271,165.600 283.462 C 165.600 283.652,166.005 284.261,166.500 284.814 C 166.995 285.368,167.738 286.480,168.150 287.287 C 168.563 288.093,169.148 288.848,169.450 288.964 C 169.753 289.080,170.000 289.441,170.000 289.767 C 170.000 290.092,170.450 290.844,171.000 291.438 C 171.550 292.031,172.005 292.806,172.011 293.158 C 172.017 293.511,172.557 294.325,173.211 294.967 C 173.865 295.608,174.400 296.362,174.400 296.642 C 174.400 296.922,174.937 297.738,175.593 298.457 C 176.249 299.175,177.068 300.357,177.412 301.082 C 177.756 301.807,178.181 302.400,178.356 302.400 C 178.531 302.400,179.017 303.059,179.437 303.864 C 179.857 304.670,180.605 305.776,181.100 306.323 C 181.595 306.869,182.000 307.527,182.000 307.784 C 182.000 308.040,182.540 308.768,183.200 309.400 C 183.860 310.032,184.405 310.831,184.411 311.175 C 184.417 311.519,184.957 312.325,185.611 312.967 C 186.265 313.608,186.800 314.358,186.800 314.633 C 186.800 314.908,186.936 315.193,187.103 315.267 C 187.712 315.534,190.000 318.732,190.000 319.315 C 190.000 319.645,190.258 320.013,190.573 320.134 C 190.888 320.255,191.762 321.310,192.515 322.477 C 193.267 323.645,194.269 324.943,194.742 325.362 C 195.214 325.781,195.600 326.323,195.600 326.566 C 195.600 326.809,196.005 327.466,196.500 328.025 C 197.580 329.245,198.267 330.288,198.791 331.500 C 199.408 332.928,200.607 332.615,201.566 330.776 C 202.031 329.883,202.859 328.670,203.406 328.080 C 203.953 327.491,204.400 326.816,204.400 326.580 C 204.400 326.345,204.913 325.623,205.539 324.976 C 206.166 324.329,207.182 322.990,207.798 322.000 C 208.413 321.010,209.160 320.056,209.458 319.880 C 209.756 319.704,210.000 319.209,210.000 318.780 C 210.000 318.351,210.152 318.000,210.338 318.000 C 210.524 318.000,211.632 316.650,212.800 315.000 C 213.968 313.350,215.076 312.000,215.262 312.000 C 215.448 312.000,215.600 311.716,215.600 311.369 C 215.600 311.022,216.140 310.198,216.800 309.538 C 217.460 308.878,218.000 308.109,218.000 307.828 C 218.000 307.547,218.437 306.845,218.971 306.269 C 219.505 305.692,220.270 304.631,220.671 303.910 C 221.072 303.190,221.625 302.456,221.900 302.280 C 222.175 302.104,222.402 301.744,222.404 301.480 C 222.406 301.216,223.055 300.190,223.846 299.200 C 224.637 298.210,225.441 296.995,225.633 296.500 C 225.824 296.005,226.136 295.600,226.327 295.600 C 226.518 295.600,227.017 294.925,227.437 294.100 C 227.857 293.275,228.605 292.043,229.100 291.362 C 229.595 290.681,230.000 289.916,230.000 289.662 C 230.000 289.408,230.154 289.200,230.343 289.200 C 230.532 289.200,231.387 288.099,232.243 286.753 C 233.099 285.407,234.070 283.901,234.400 283.407 C 234.730 282.913,235.512 281.674,236.138 280.654 C 236.764 279.634,237.439 278.800,237.638 278.800 C 237.837 278.800,238.000 278.466,238.000 278.058 C 238.000 277.651,238.405 276.869,238.900 276.323 C 239.395 275.776,240.155 274.649,240.588 273.818 C 241.021 272.987,241.606 272.219,241.888 272.111 C 242.170 272.003,242.400 271.652,242.400 271.331 C 242.400 271.009,242.850 270.157,243.400 269.436 C 243.950 268.714,244.400 268.008,244.400 267.866 C 244.400 267.724,245.210 266.425,246.200 264.979 C 247.190 263.533,248.000 262.091,248.000 261.775 C 248.000 261.459,248.139 261.200,248.309 261.200 C 248.479 261.200,248.972 260.525,249.405 259.700 C 249.838 258.875,250.419 258.056,250.696 257.880 C 250.973 257.704,251.200 257.320,251.200 257.026 C 251.200 256.732,251.920 255.413,252.800 254.095 C 253.680 252.777,254.400 251.416,254.400 251.069 C 254.400 250.723,254.625 250.296,254.900 250.120 C 255.175 249.944,255.927 248.746,256.572 247.457 C 257.216 246.168,257.936 244.908,258.172 244.657 C 258.407 244.406,259.014 243.390,259.521 242.400 C 261.849 237.849,263.705 234.589,264.037 234.467 C 264.237 234.393,264.400 233.999,264.400 233.590 C 264.400 233.182,264.563 232.747,264.761 232.624 C 264.960 232.501,265.796 231.096,266.619 229.500 C 268.510 225.838,270.332 222.377,270.778 221.600 C 271.386 220.541,273.600 215.711,273.600 215.443 C 273.600 215.301,274.050 214.471,274.600 213.600 C 275.150 212.729,275.600 211.674,275.600 211.257 C 275.600 210.839,275.870 210.274,276.200 210.000 C 276.530 209.726,276.800 209.281,276.800 209.011 C 276.800 208.740,277.229 207.712,277.754 206.725 C 278.278 205.739,278.833 204.362,278.986 203.666 C 279.138 202.970,279.429 202.400,279.632 202.400 C 279.834 202.400,280.000 201.972,280.000 201.449 C 280.000 200.926,280.270 200.274,280.600 200.000 C 280.930 199.726,281.206 199.119,281.213 198.651 C 281.220 198.183,281.490 197.451,281.813 197.024 C 282.136 196.596,282.400 195.859,282.400 195.385 C 282.400 194.605,283.021 192.970,284.026 191.105 C 284.232 190.723,284.400 190.083,284.400 189.682 C 284.400 189.281,284.664 188.604,284.987 188.176 C 285.310 187.749,285.580 186.837,285.587 186.149 C 285.594 185.461,285.870 184.674,286.200 184.400 C 286.530 184.126,286.800 183.330,286.800 182.631 C 286.800 181.932,286.990 181.170,287.222 180.938 C 287.454 180.706,287.740 179.635,287.858 178.558 C 287.976 177.481,288.223 176.417,288.407 176.194 C 289.758 174.556,290.601 150.884,289.413 147.916 C 289.076 147.074,288.800 145.343,288.800 144.072 C 288.800 142.800,288.631 141.589,288.425 141.380 C 288.218 141.171,287.942 140.103,287.812 139.008 C 287.682 137.912,287.401 136.841,287.188 136.628 C 286.974 136.414,286.800 135.680,286.800 134.996 C 286.800 134.313,286.536 133.404,286.213 132.976 C 285.890 132.549,285.620 131.739,285.613 131.176 C 285.606 130.614,285.336 129.804,285.013 129.376 C 284.690 128.949,284.414 128.240,284.400 127.800 C 284.386 127.360,284.110 126.651,283.787 126.224 C 283.464 125.796,283.200 125.131,283.200 124.745 C 283.200 124.358,282.750 123.196,282.200 122.162 C 281.650 121.127,281.200 120.060,281.200 119.789 C 281.200 119.519,280.953 119.093,280.652 118.843 C 280.351 118.593,279.782 117.536,279.389 116.494 C 278.995 115.452,278.567 114.510,278.437 114.400 C 278.307 114.290,277.750 113.328,277.200 112.262 C 276.650 111.196,275.840 109.920,275.400 109.426 C 274.960 108.933,274.251 107.915,273.825 107.164 C 273.399 106.414,272.828 105.620,272.556 105.400 C 272.284 105.180,271.732 104.445,271.330 103.766 C 268.898 99.656,260.552 90.712,256.083 87.427 C 254.699 86.409,253.464 85.312,253.340 84.988 C 253.216 84.665,252.856 84.400,252.540 84.400 C 252.224 84.400,251.012 83.680,249.846 82.800 C 248.681 81.920,247.538 81.200,247.306 81.200 C 247.075 81.200,246.782 80.930,246.655 80.600 C 246.529 80.270,246.142 80.000,245.796 80.000 C 245.451 80.000,244.635 79.640,243.984 79.200 C 243.333 78.760,242.267 78.040,241.616 77.600 C 240.965 77.160,240.257 76.800,240.043 76.800 C 239.829 76.800,238.067 76.015,236.127 75.056 C 234.187 74.097,231.565 73.000,230.301 72.619 C 229.036 72.238,227.901 71.763,227.777 71.563 C 227.654 71.363,227.058 71.200,226.453 71.200 C 225.848 71.200,225.004 70.936,224.576 70.613 C 224.149 70.290,223.080 70.013,222.200 69.999 C 221.320 69.984,220.150 69.714,219.600 69.400 C 219.050 69.086,217.913 68.822,217.074 68.814 C 216.234 68.806,215.172 68.599,214.713 68.353 C 213.385 67.643,196.493 66.440,195.918 67.015 M208.800 106.200 C 209.735 106.530,211.063 106.806,211.750 106.813 C 212.438 106.820,213.349 107.090,213.776 107.413 C 214.204 107.736,215.048 108.000,215.653 108.000 C 216.258 108.000,216.855 108.166,216.981 108.369 C 217.106 108.572,217.747 108.857,218.405 109.001 C 219.062 109.145,219.600 109.415,219.600 109.600 C 219.600 109.785,220.138 110.055,220.795 110.199 C 221.453 110.343,222.094 110.628,222.219 110.831 C 222.345 111.034,222.788 111.200,223.204 111.200 C 223.620 111.200,224.104 111.425,224.280 111.701 C 224.456 111.976,225.140 112.471,225.800 112.801 C 230.484 115.140,242.400 126.828,242.400 129.082 C 242.400 129.216,242.850 129.914,243.400 130.636 C 243.950 131.357,244.400 132.207,244.400 132.524 C 244.400 132.842,244.670 133.326,245.000 133.600 C 245.330 133.874,245.600 134.348,245.600 134.654 C 245.600 134.960,245.768 135.523,245.974 135.905 C 247.042 137.886,247.600 139.434,247.600 140.412 C 247.600 141.012,247.870 141.726,248.200 142.000 C 248.551 142.291,248.806 143.184,248.814 144.149 C 248.822 145.057,249.086 146.250,249.400 146.800 C 250.245 148.278,250.245 162.639,249.400 164.662 C 249.070 165.451,248.794 166.661,248.786 167.349 C 248.778 168.037,248.514 169.050,248.200 169.600 C 247.886 170.150,247.622 170.990,247.614 171.468 C 247.606 171.945,247.347 172.845,247.037 173.468 C 246.727 174.090,246.298 175.050,246.082 175.600 C 245.252 177.717,242.979 182.085,242.501 182.482 C 242.226 182.711,242.000 183.121,242.000 183.393 C 242.000 183.665,241.308 184.678,240.462 185.644 C 239.616 186.610,238.851 187.610,238.762 187.866 C 238.476 188.689,233.957 193.206,231.845 194.780 C 230.720 195.618,229.367 196.685,228.839 197.152 C 228.310 197.618,227.635 198.000,227.339 198.000 C 227.042 198.000,226.800 198.159,226.800 198.353 C 226.800 198.548,226.485 198.821,226.100 198.960 C 225.154 199.302,223.633 200.207,223.086 200.754 C 222.841 200.999,222.393 201.200,222.091 201.200 C 221.790 201.200,221.273 201.470,220.943 201.800 C 220.613 202.130,220.006 202.400,219.595 202.400 C 219.184 202.400,218.736 202.580,218.600 202.800 C 218.464 203.020,217.845 203.200,217.225 203.200 C 216.605 203.200,215.874 203.470,215.600 203.800 C 215.323 204.134,214.451 204.400,213.631 204.400 C 212.822 204.400,211.942 204.618,211.675 204.885 C 210.842 205.718,200.150 206.735,196.600 206.318 C 189.353 205.468,187.803 205.208,187.675 204.824 C 187.597 204.591,186.963 204.394,186.267 204.387 C 185.570 204.380,184.651 204.110,184.224 203.787 C 183.796 203.464,183.046 203.200,182.556 203.200 C 182.066 203.200,181.155 202.942,180.532 202.626 C 179.910 202.311,178.361 201.559,177.091 200.956 C 175.821 200.353,174.584 199.621,174.342 199.330 C 174.100 199.038,173.564 198.800,173.151 198.800 C 172.738 198.800,172.400 198.628,172.400 198.419 C 172.400 198.209,171.786 197.746,171.035 197.390 C 169.065 196.455,158.000 185.468,158.000 184.446 C 158.000 184.232,157.775 183.819,157.500 183.527 C 156.802 182.787,155.350 180.204,154.168 177.600 C 153.619 176.390,152.997 175.087,152.785 174.705 C 152.573 174.323,152.400 173.683,152.400 173.282 C 152.400 172.881,152.136 172.204,151.813 171.776 C 151.490 171.349,151.213 170.460,151.199 169.800 C 151.184 169.140,150.914 168.150,150.600 167.600 C 150.286 167.050,150.022 165.691,150.014 164.580 C 150.006 163.469,149.807 162.367,149.571 162.131 C 148.656 161.216,149.677 144.963,150.714 143.926 C 150.981 143.659,151.200 142.880,151.200 142.196 C 151.200 141.513,151.464 140.604,151.787 140.176 C 152.110 139.749,152.380 138.927,152.387 138.349 C 152.394 137.771,152.670 137.074,153.000 136.800 C 153.330 136.526,153.606 136.009,153.613 135.651 C 153.620 135.293,153.890 134.651,154.213 134.224 C 154.536 133.796,154.800 133.121,154.800 132.724 C 154.800 132.326,154.980 132.000,155.200 132.000 C 155.420 132.000,155.600 131.649,155.600 131.220 C 155.600 130.791,155.825 130.296,156.100 130.120 C 156.654 129.765,157.405 128.653,157.976 127.340 C 158.181 126.868,158.679 126.238,159.082 125.940 C 159.484 125.643,160.153 124.860,160.566 124.200 C 161.419 122.841,167.794 116.400,168.287 116.400 C 168.464 116.400,169.327 115.773,170.204 115.008 C 171.082 114.242,172.115 113.612,172.500 113.608 C 172.885 113.603,173.200 113.430,173.200 113.222 C 173.200 112.812,173.994 112.321,177.034 110.848 C 178.115 110.324,179.313 109.739,179.695 109.548 C 180.077 109.357,180.730 109.200,181.146 109.200 C 181.562 109.200,182.126 108.930,182.400 108.600 C 182.674 108.270,183.281 107.994,183.749 107.986 C 184.217 107.978,185.050 107.714,185.600 107.400 C 186.150 107.086,187.164 106.822,187.854 106.814 C 188.544 106.806,189.714 106.537,190.454 106.216 C 192.411 105.366,206.403 105.354,208.800 106.200 " stroke="none" fill="#fcfcfc" fill-rule="evenodd"></path><path id="path1" d="M188.600 65.600 C 188.464 65.820,187.148 66.001,185.676 66.002 C 184.085 66.004,182.536 66.247,181.854 66.602 C 181.224 66.931,180.044 67.200,179.231 67.200 C 178.418 67.200,177.404 67.464,176.976 67.787 C 176.549 68.110,175.519 68.380,174.687 68.387 C 173.721 68.395,173.092 68.617,172.945 69.000 C 172.795 69.391,172.172 69.600,171.157 69.600 C 170.301 69.600,169.600 69.780,169.600 70.000 C 169.600 70.220,169.285 70.401,168.900 70.402 C 168.515 70.404,167.684 70.674,167.054 71.002 C 166.424 71.331,165.563 71.600,165.142 71.600 C 164.720 71.600,164.271 71.870,164.145 72.200 C 164.018 72.530,163.478 72.800,162.945 72.800 C 162.411 72.800,161.871 73.070,161.745 73.400 C 161.618 73.730,161.084 74.000,160.557 74.000 C 159.973 74.000,159.600 74.234,159.600 74.600 C 159.600 75.000,159.200 75.200,158.400 75.200 C 157.740 75.200,157.200 75.380,157.200 75.600 C 157.200 75.820,156.943 76.000,156.629 76.000 C 156.314 76.000,155.819 76.226,155.529 76.503 C 155.238 76.779,154.237 77.364,153.305 77.803 C 152.372 78.241,151.607 78.825,151.605 79.100 C 151.602 79.375,151.231 79.600,150.781 79.600 C 150.330 79.600,149.565 80.025,149.081 80.544 C 148.596 81.064,147.795 81.616,147.300 81.771 C 146.805 81.927,146.400 82.222,146.400 82.427 C 146.400 82.632,146.130 82.800,145.800 82.800 C 145.470 82.800,145.200 83.070,145.200 83.400 C 145.200 83.730,144.930 84.000,144.600 84.000 C 144.270 84.000,143.998 84.225,143.995 84.500 C 143.993 84.775,143.273 85.344,142.395 85.764 C 141.518 86.185,140.800 86.680,140.800 86.864 C 140.800 87.049,140.530 87.200,140.200 87.200 C 139.870 87.200,139.600 87.470,139.600 87.800 C 139.600 88.130,139.330 88.400,139.000 88.400 C 138.670 88.400,138.400 88.670,138.400 89.000 C 138.400 89.330,138.226 89.600,138.014 89.600 C 137.491 89.600,135.200 91.869,135.200 92.387 C 135.200 92.614,134.930 92.800,134.600 92.800 C 134.270 92.800,134.000 93.070,134.000 93.400 C 134.000 93.730,133.730 94.000,133.400 94.000 C 133.070 94.000,132.800 94.270,132.800 94.600 C 132.800 94.930,132.569 95.200,132.286 95.200 C 132.004 95.200,131.454 95.740,131.064 96.400 C 130.674 97.060,130.185 97.600,129.977 97.600 C 129.770 97.600,129.600 98.050,129.600 98.600 C 129.600 99.150,129.420 99.600,129.200 99.600 C 128.374 99.600,125.200 103.547,125.200 104.573 C 125.200 104.918,124.930 105.200,124.600 105.200 C 124.264 105.200,124.000 105.557,124.000 106.013 C 124.000 106.459,123.730 106.929,123.400 107.055 C 123.070 107.182,122.800 107.517,122.800 107.800 C 122.800 108.083,122.530 108.418,122.200 108.545 C 121.870 108.671,121.600 109.148,121.600 109.605 C 121.600 110.061,121.150 110.920,120.600 111.513 C 120.050 112.107,119.600 112.889,119.600 113.253 C 119.600 113.617,119.330 114.018,119.000 114.145 C 118.670 114.271,118.400 114.811,118.400 115.345 C 118.400 115.878,118.130 116.418,117.800 116.545 C 117.470 116.671,117.200 117.036,117.200 117.355 C 117.200 118.032,115.939 120.538,115.500 120.733 C 115.335 120.807,115.200 121.572,115.200 122.433 C 115.200 123.559,115.031 124.000,114.600 124.000 C 114.169 124.000,114.000 124.440,114.000 125.557 C 114.000 126.572,113.791 127.195,113.400 127.345 C 113.070 127.471,112.794 127.986,112.787 128.487 C 112.780 128.989,112.510 129.749,112.187 130.176 C 111.864 130.604,111.600 131.538,111.600 132.253 C 111.600 132.968,111.430 133.658,111.223 133.786 C 111.016 133.914,110.725 134.824,110.578 135.809 C 110.430 136.794,110.150 137.600,109.955 137.600 C 109.760 137.600,109.600 138.603,109.600 139.829 C 109.600 141.276,109.390 142.267,109.000 142.657 C 108.541 143.116,108.400 144.271,108.400 147.583 C 108.400 150.642,108.225 152.244,107.802 153.054 C 106.954 154.682,106.942 164.706,107.787 165.824 C 108.211 166.384,108.378 167.721,108.387 170.624 C 108.396 173.526,108.564 174.863,108.987 175.424 C 109.322 175.867,109.580 177.087,109.587 178.267 C 109.594 179.403,109.798 180.399,110.039 180.480 C 110.281 180.560,110.575 181.479,110.692 182.522 C 110.810 183.565,111.062 184.515,111.253 184.633 C 111.444 184.751,111.600 185.252,111.600 185.747 C 111.600 186.242,111.864 186.996,112.187 187.424 C 112.510 187.851,112.780 188.695,112.787 189.300 C 112.795 190.005,113.015 190.400,113.400 190.400 C 113.831 190.400,114.000 190.840,114.000 191.957 C 114.000 192.972,114.209 193.595,114.600 193.745 C 114.996 193.897,115.200 194.523,115.200 195.587 C 115.200 196.474,115.380 197.200,115.600 197.200 C 115.820 197.200,116.000 197.526,116.000 197.924 C 116.000 198.321,116.264 198.996,116.587 199.424 C 116.910 199.851,117.180 200.583,117.187 201.051 C 117.194 201.519,117.470 202.126,117.800 202.400 C 118.130 202.674,118.400 203.326,118.400 203.849 C 118.400 204.428,118.635 204.800,119.000 204.800 C 119.363 204.800,119.600 205.171,119.600 205.739 C 119.600 206.585,120.198 208.187,121.226 210.095 C 121.432 210.477,121.600 211.040,121.600 211.346 C 121.600 211.652,121.870 212.126,122.200 212.400 C 122.530 212.674,122.800 213.326,122.800 213.849 C 122.800 214.428,123.035 214.800,123.400 214.800 C 123.800 214.800,124.000 215.200,124.000 216.000 C 124.000 216.800,124.200 217.200,124.600 217.200 C 124.973 217.200,125.200 217.578,125.200 218.200 C 125.200 218.750,125.380 219.200,125.600 219.200 C 125.820 219.200,126.000 219.656,126.000 220.213 C 126.000 220.769,126.270 221.329,126.600 221.455 C 126.930 221.582,127.200 222.097,127.200 222.600 C 127.200 223.103,127.470 223.618,127.800 223.745 C 128.130 223.871,128.400 224.431,128.400 224.987 C 128.400 225.621,128.625 226.000,129.000 226.000 C 129.330 226.000,129.600 226.345,129.600 226.768 C 129.600 227.590,130.803 230.112,131.300 230.333 C 131.465 230.407,131.600 230.907,131.600 231.446 C 131.600 231.984,131.870 232.529,132.200 232.655 C 132.530 232.782,132.800 233.232,132.800 233.655 C 132.800 234.079,133.070 234.529,133.400 234.655 C 133.730 234.782,134.000 235.322,134.000 235.855 C 134.000 236.389,134.270 236.929,134.600 237.055 C 134.930 237.182,135.200 237.536,135.200 237.843 C 135.200 238.149,135.380 238.400,135.600 238.400 C 135.820 238.400,136.000 238.766,136.000 239.213 C 136.000 239.659,136.270 240.129,136.600 240.255 C 136.930 240.382,137.200 240.922,137.200 241.455 C 137.200 241.989,137.470 242.529,137.800 242.655 C 138.130 242.782,138.400 243.232,138.400 243.655 C 138.400 244.079,138.670 244.529,139.000 244.655 C 139.330 244.782,139.600 245.273,139.600 245.747 C 139.600 246.221,140.050 247.093,140.600 247.687 C 141.150 248.280,141.600 249.049,141.600 249.395 C 141.600 249.742,141.870 250.129,142.200 250.255 C 142.530 250.382,142.800 250.922,142.800 251.455 C 142.800 251.989,143.070 252.529,143.400 252.655 C 143.730 252.782,144.000 253.117,144.000 253.400 C 144.000 253.683,144.270 254.018,144.600 254.145 C 144.930 254.271,145.200 254.741,145.200 255.187 C 145.200 255.634,145.380 256.000,145.600 256.000 C 145.820 256.000,146.000 256.261,146.000 256.580 C 146.000 256.899,146.540 257.960,147.200 258.938 C 147.860 259.916,148.400 260.915,148.400 261.158 C 148.400 261.401,148.670 261.600,149.000 261.600 C 149.338 261.600,149.600 261.958,149.600 262.419 C 149.600 262.870,150.050 263.655,150.600 264.165 C 151.150 264.675,151.600 265.482,151.600 265.958 C 151.600 266.435,151.854 266.922,152.164 267.041 C 152.474 267.161,152.837 267.695,152.972 268.229 C 153.106 268.763,153.392 269.200,153.608 269.200 C 153.823 269.200,154.000 269.470,154.000 269.800 C 154.000 270.130,154.236 270.400,154.525 270.400 C 154.814 270.400,155.301 271.039,155.608 271.819 C 155.914 272.600,156.397 273.432,156.682 273.668 C 156.967 273.905,157.200 274.442,157.200 274.862 C 157.200 275.281,157.470 275.729,157.800 275.855 C 158.130 275.982,158.400 276.336,158.400 276.643 C 158.400 276.949,158.670 277.200,159.000 277.200 C 159.338 277.200,159.600 277.558,159.600 278.019 C 159.600 278.470,160.050 279.255,160.600 279.765 C 161.150 280.275,161.600 281.040,161.600 281.465 C 161.600 281.890,162.132 282.679,162.783 283.219 C 163.434 283.758,163.974 284.605,163.983 285.100 C 163.993 285.626,164.249 286.000,164.600 286.000 C 164.930 286.000,165.200 286.270,165.200 286.600 C 165.200 286.930,165.360 287.200,165.557 287.200 C 165.753 287.200,166.026 287.650,166.164 288.200 C 166.302 288.750,166.592 289.200,166.808 289.200 C 167.023 289.200,167.200 289.470,167.200 289.800 C 167.200 290.130,167.470 290.400,167.800 290.400 C 168.175 290.400,168.400 290.779,168.400 291.413 C 168.400 291.969,168.647 292.520,168.950 292.636 C 169.252 292.752,169.837 293.511,170.250 294.323 C 170.662 295.136,171.360 296.172,171.800 296.626 C 172.791 297.649,173.550 298.783,173.858 299.700 C 173.988 300.085,174.342 300.400,174.647 300.400 C 174.970 300.400,175.200 300.815,175.200 301.400 C 175.200 301.950,175.335 302.401,175.500 302.401 C 175.665 302.402,176.160 302.941,176.600 303.600 C 177.040 304.259,177.625 304.798,177.900 304.799 C 178.175 304.799,178.400 305.256,178.400 305.813 C 178.400 306.369,178.654 306.922,178.964 307.041 C 179.274 307.161,179.630 307.666,179.755 308.164 C 179.880 308.662,180.616 309.742,181.391 310.563 C 182.166 311.385,182.800 312.314,182.800 312.628 C 182.800 313.281,184.199 314.800,184.800 314.800 C 185.020 314.800,185.200 315.259,185.200 315.819 C 185.200 316.392,185.638 317.244,186.200 317.765 C 186.750 318.275,187.200 318.856,187.200 319.057 C 187.200 319.257,187.695 319.978,188.300 320.657 C 189.505 322.011,190.260 323.075,190.673 324.000 C 190.820 324.330,191.359 324.996,191.870 325.481 C 192.382 325.965,192.800 326.550,192.800 326.781 C 192.800 327.011,193.070 327.200,193.400 327.200 C 193.773 327.200,194.000 327.578,194.000 328.200 C 194.000 328.822,194.227 329.200,194.600 329.200 C 194.930 329.200,195.200 329.470,195.200 329.800 C 195.200 330.130,195.335 330.401,195.500 330.403 C 195.665 330.404,196.243 331.079,196.783 331.903 C 197.324 332.726,197.828 333.484,197.902 333.586 C 198.519 334.430,202.800 333.640,202.800 332.682 C 202.800 332.412,203.250 331.707,203.800 331.113 C 204.350 330.520,204.800 329.847,204.800 329.617 C 204.800 329.388,205.070 329.200,205.400 329.200 C 205.736 329.200,206.000 328.843,206.000 328.387 C 206.000 327.941,206.270 327.471,206.600 327.345 C 206.930 327.218,207.200 326.945,207.200 326.738 C 207.200 326.531,207.625 325.965,208.144 325.481 C 208.664 324.996,209.216 324.195,209.371 323.700 C 209.527 323.205,209.822 322.800,210.027 322.800 C 210.232 322.800,210.400 322.530,210.400 322.200 C 210.400 321.870,210.626 321.600,210.902 321.600 C 211.179 321.600,211.635 321.081,211.915 320.446 C 212.367 319.426,212.816 318.786,214.393 316.917 C 214.617 316.651,214.800 316.066,214.800 315.617 C 214.800 315.168,214.980 314.800,215.200 314.800 C 215.905 314.800,217.200 313.228,217.200 312.371 C 217.200 311.510,218.060 310.400,218.728 310.400 C 218.940 310.400,219.226 309.950,219.364 309.400 C 219.502 308.850,219.792 308.400,220.008 308.400 C 220.223 308.400,220.400 308.149,220.400 307.843 C 220.400 307.536,220.670 307.182,221.000 307.055 C 221.330 306.929,221.600 306.369,221.600 305.813 C 221.600 305.256,221.796 304.800,222.036 304.800 C 222.663 304.800,223.971 303.124,223.987 302.300 C 223.994 301.915,224.180 301.600,224.400 301.600 C 224.620 301.600,224.800 301.330,224.800 301.000 C 224.800 300.670,225.070 300.400,225.400 300.400 C 225.730 300.400,226.000 300.046,226.000 299.614 C 226.000 299.181,226.540 298.275,227.200 297.600 C 227.860 296.925,228.400 296.152,228.400 295.882 C 228.400 295.612,228.850 294.907,229.400 294.313 C 229.950 293.720,230.400 292.867,230.400 292.417 C 230.400 291.957,230.662 291.600,231.000 291.600 C 231.330 291.600,231.600 291.330,231.600 291.000 C 231.600 290.670,231.870 290.400,232.200 290.400 C 232.564 290.400,232.800 290.028,232.800 289.456 C 232.800 288.916,233.228 288.191,233.800 287.761 C 234.350 287.348,234.800 286.723,234.800 286.372 C 234.800 286.021,235.335 285.208,235.989 284.567 C 236.643 283.925,237.183 283.079,237.189 282.687 C 237.195 282.296,237.470 281.871,237.800 281.745 C 238.130 281.618,238.400 281.279,238.400 280.991 C 238.400 280.702,238.588 280.404,238.818 280.327 C 239.048 280.251,239.266 279.786,239.303 279.294 C 239.340 278.802,239.602 278.400,239.885 278.400 C 240.168 278.400,240.400 278.130,240.400 277.800 C 240.400 277.470,240.670 277.200,241.000 277.200 C 241.400 277.200,241.600 276.800,241.600 276.000 C 241.600 275.200,241.800 274.800,242.200 274.800 C 242.530 274.800,242.800 274.607,242.800 274.371 C 242.800 274.136,243.080 273.663,243.423 273.320 C 243.766 272.977,243.952 272.451,243.836 272.151 C 243.718 271.842,244.144 271.222,244.813 270.727 C 245.466 270.244,246.000 269.543,246.000 269.168 C 246.000 268.792,246.270 268.382,246.600 268.255 C 246.930 268.129,247.200 267.635,247.200 267.158 C 247.200 266.682,247.629 265.894,248.153 265.408 C 248.677 264.922,249.230 264.137,249.380 263.662 C 249.531 263.188,249.822 262.800,250.027 262.800 C 250.232 262.800,250.400 262.260,250.400 261.600 C 250.400 260.800,250.600 260.400,251.000 260.400 C 251.330 260.400,251.600 260.130,251.600 259.800 C 251.600 259.470,251.870 259.200,252.200 259.200 C 252.530 259.200,252.800 258.849,252.800 258.421 C 252.800 257.992,253.250 257.156,253.800 256.562 C 254.350 255.969,254.800 255.169,254.800 254.784 C 254.800 254.400,255.070 253.982,255.400 253.855 C 255.730 253.729,256.000 253.169,256.000 252.613 C 256.000 251.979,256.225 251.600,256.600 251.600 C 256.930 251.600,257.200 251.330,257.200 251.000 C 257.200 250.670,257.346 250.400,257.524 250.400 C 257.702 250.400,258.287 249.412,258.824 248.204 C 259.361 246.996,259.935 246.006,260.100 246.004 C 260.265 246.002,260.400 245.634,260.400 245.187 C 260.400 244.741,260.670 244.271,261.000 244.145 C 261.330 244.018,261.600 243.686,261.600 243.406 C 261.600 243.127,261.870 242.674,262.200 242.400 C 262.530 242.126,262.800 241.564,262.800 241.151 C 262.800 240.738,262.945 240.400,263.123 240.400 C 263.527 240.400,264.800 237.564,264.800 236.666 C 264.800 236.300,265.070 236.000,265.400 236.000 C 265.766 236.000,266.000 235.627,266.000 235.043 C 266.000 234.516,266.270 233.982,266.600 233.855 C 266.930 233.729,267.200 233.189,267.200 232.655 C 267.200 232.122,267.470 231.582,267.800 231.455 C 268.130 231.329,268.400 230.937,268.400 230.586 C 268.400 230.234,268.850 229.357,269.400 228.636 C 269.950 227.914,270.400 227.104,270.400 226.834 C 270.400 226.564,270.670 226.073,271.000 225.743 C 271.330 225.413,271.600 224.796,271.600 224.371 C 271.600 223.947,271.746 223.600,271.924 223.600 C 272.102 223.600,272.687 222.612,273.224 221.404 C 273.761 220.196,274.335 219.206,274.500 219.204 C 274.665 219.202,274.800 218.682,274.800 218.049 C 274.800 217.416,275.070 216.674,275.400 216.400 C 275.730 216.126,276.000 215.586,276.000 215.200 C 276.000 214.814,276.270 214.274,276.600 214.000 C 276.930 213.726,277.200 213.093,277.200 212.594 C 277.200 212.094,277.470 211.582,277.800 211.455 C 278.130 211.329,278.400 210.769,278.400 210.213 C 278.400 209.656,278.577 209.200,278.792 209.200 C 279.008 209.200,279.298 208.750,279.436 208.200 C 279.574 207.650,279.847 207.200,280.043 207.200 C 280.240 207.200,280.400 206.499,280.400 205.643 C 280.400 204.628,280.609 204.005,281.000 203.855 C 281.330 203.729,281.600 203.189,281.600 202.655 C 281.600 202.122,281.870 201.582,282.200 201.455 C 282.530 201.329,282.800 200.847,282.800 200.384 C 282.800 199.921,283.070 199.273,283.400 198.943 C 283.730 198.613,284.000 197.816,284.000 197.171 C 284.000 196.527,284.180 196.000,284.400 196.000 C 284.620 196.000,284.800 195.537,284.800 194.971 C 284.800 194.406,285.070 193.673,285.400 193.343 C 285.730 193.013,286.000 192.235,286.000 191.614 C 286.000 190.980,286.263 190.385,286.600 190.255 C 286.971 190.113,287.200 189.505,287.200 188.662 C 287.200 187.912,287.470 187.074,287.800 186.800 C 288.130 186.526,288.400 185.730,288.400 185.031 C 288.400 184.332,288.590 183.570,288.823 183.337 C 289.055 183.105,289.326 181.952,289.423 180.777 C 289.521 179.601,289.781 178.459,290.001 178.239 C 290.220 178.020,290.400 176.790,290.400 175.507 C 290.400 173.803,290.562 173.113,291.000 172.945 C 291.458 172.769,291.600 172.021,291.600 169.791 C 291.600 167.807,291.761 166.813,292.100 166.701 C 292.929 166.425,293.044 155.432,292.231 154.191 C 291.750 153.456,291.600 152.146,291.600 148.663 C 291.600 145.093,291.469 143.989,291.000 143.600 C 290.604 143.272,290.400 142.378,290.400 140.975 C 290.400 139.805,290.243 138.750,290.052 138.632 C 289.860 138.514,289.613 137.476,289.502 136.325 C 289.392 135.175,289.099 134.166,288.851 134.084 C 288.603 134.001,288.400 133.151,288.400 132.195 C 288.400 131.184,288.149 130.206,287.800 129.857 C 287.470 129.527,287.200 128.807,287.200 128.257 C 287.200 127.707,286.930 126.987,286.600 126.657 C 286.270 126.327,286.000 125.594,286.000 125.029 C 286.000 124.381,285.778 124.000,285.400 124.000 C 284.983 124.000,284.800 123.580,284.800 122.624 C 284.800 121.867,284.634 121.145,284.431 121.019 C 284.228 120.894,283.943 120.253,283.799 119.595 C 283.655 118.938,283.371 118.400,283.168 118.400 C 282.966 118.400,282.800 118.034,282.800 117.587 C 282.800 117.141,282.530 116.671,282.200 116.545 C 281.870 116.418,281.600 115.878,281.600 115.345 C 281.600 114.811,281.330 114.271,281.000 114.145 C 280.670 114.018,280.400 113.664,280.400 113.357 C 280.400 113.051,280.240 112.800,280.043 112.800 C 279.847 112.800,279.574 112.350,279.436 111.800 C 279.298 111.250,279.008 110.800,278.792 110.800 C 278.577 110.800,278.400 110.359,278.400 109.820 C 278.400 109.281,278.175 108.696,277.900 108.520 C 277.315 108.145,276.476 106.896,276.142 105.900 C 276.012 105.515,275.703 105.198,275.453 105.195 C 275.204 105.193,274.665 104.491,274.255 103.635 C 273.479 102.015,271.483 99.600,270.920 99.600 C 270.741 99.600,270.349 99.043,270.048 98.363 C 269.746 97.682,268.982 96.596,268.350 95.949 C 267.717 95.302,267.200 94.599,267.200 94.386 C 267.200 94.174,266.930 94.000,266.600 94.000 C 266.270 94.000,266.000 93.730,266.000 93.400 C 266.000 93.070,265.730 92.800,265.400 92.800 C 265.070 92.800,264.800 92.560,264.800 92.268 C 264.800 91.975,264.350 91.494,263.800 91.200 C 263.250 90.906,262.800 90.425,262.800 90.132 C 262.800 89.840,262.626 89.600,262.413 89.600 C 262.201 89.600,261.388 88.961,260.607 88.180 C 259.804 87.378,258.989 86.883,258.732 87.042 C 258.463 87.208,258.386 87.146,258.544 86.891 C 258.691 86.652,258.449 86.343,258.006 86.202 C 257.563 86.061,257.200 85.778,257.200 85.573 C 257.200 85.368,256.930 85.200,256.600 85.200 C 256.270 85.200,256.000 84.930,256.000 84.600 C 256.000 84.270,255.730 84.000,255.400 84.000 C 255.070 84.000,254.800 83.730,254.800 83.400 C 254.800 83.070,254.530 82.800,254.200 82.800 C 253.870 82.800,253.600 82.632,253.600 82.427 C 253.600 82.222,253.195 81.927,252.700 81.771 C 252.205 81.616,251.404 81.064,250.919 80.544 C 250.435 80.025,249.670 79.600,249.219 79.600 C 248.758 79.600,248.400 79.338,248.400 79.000 C 248.400 78.670,248.152 78.400,247.849 78.400 C 247.546 78.400,247.074 78.130,246.800 77.800 C 246.526 77.470,245.983 77.200,245.594 77.200 C 245.204 77.200,244.782 76.930,244.655 76.600 C 244.529 76.270,244.059 76.000,243.613 76.000 C 243.166 76.000,242.800 75.820,242.800 75.600 C 242.800 75.380,242.260 75.200,241.600 75.200 C 240.800 75.200,240.400 75.000,240.400 74.600 C 240.400 74.234,240.027 74.000,239.443 74.000 C 238.916 74.000,238.382 73.730,238.255 73.400 C 238.129 73.070,237.589 72.800,237.055 72.800 C 236.522 72.800,235.982 72.530,235.855 72.200 C 235.729 71.870,235.169 71.600,234.613 71.600 C 234.056 71.600,233.600 71.436,233.600 71.235 C 233.600 71.034,232.880 70.749,232.000 70.600 C 231.120 70.451,230.400 70.166,230.400 69.965 C 230.400 69.764,229.699 69.600,228.843 69.600 C 227.828 69.600,227.205 69.391,227.055 69.000 C 226.899 68.592,226.260 68.400,225.062 68.400 C 223.982 68.400,223.105 68.167,222.800 67.800 C 222.480 67.415,221.594 67.200,220.322 67.200 C 219.096 67.200,218.115 66.972,217.743 66.600 C 217.326 66.183,216.304 66.000,214.395 66.000 C 212.884 66.000,211.536 65.820,211.400 65.600 C 211.245 65.349,207.004 65.200,200.000 65.200 C 192.996 65.200,188.755 65.349,188.600 65.600 M209.239 67.527 C 211.791 67.736,214.254 68.108,214.713 68.353 C 215.172 68.599,216.234 68.806,217.074 68.814 C 217.913 68.822,219.050 69.086,219.600 69.400 C 220.150 69.714,221.320 69.984,222.200 69.999 C 223.080 70.013,224.149 70.290,224.576 70.613 C 225.004 70.936,225.848 71.200,226.453 71.200 C 227.058 71.200,227.654 71.363,227.777 71.563 C 227.901 71.763,229.036 72.238,230.301 72.619 C 231.565 73.000,234.187 74.097,236.127 75.056 C 238.067 76.015,239.829 76.800,240.043 76.800 C 240.257 76.800,240.965 77.160,241.616 77.600 C 242.267 78.040,243.333 78.760,243.984 79.200 C 244.635 79.640,245.451 80.000,245.796 80.000 C 246.142 80.000,246.529 80.270,246.655 80.600 C 246.782 80.930,247.075 81.200,247.306 81.200 C 247.538 81.200,248.681 81.920,249.846 82.800 C 251.012 83.680,252.224 84.400,252.540 84.400 C 252.856 84.400,253.216 84.665,253.340 84.988 C 253.464 85.312,254.699 86.409,256.083 87.427 C 260.552 90.712,268.898 99.656,271.330 103.766 C 271.732 104.445,272.284 105.180,272.556 105.400 C 272.828 105.620,273.399 106.414,273.825 107.164 C 274.251 107.915,274.960 108.933,275.400 109.426 C 275.840 109.920,276.650 111.196,277.200 112.262 C 277.750 113.328,278.307 114.290,278.437 114.400 C 278.567 114.510,278.995 115.452,279.389 116.494 C 279.782 117.536,280.351 118.593,280.652 118.843 C 280.953 119.093,281.200 119.519,281.200 119.789 C 281.200 120.060,281.650 121.127,282.200 122.162 C 282.750 123.196,283.200 124.358,283.200 124.745 C 283.200 125.131,283.464 125.796,283.787 126.224 C 284.110 126.651,284.386 127.360,284.400 127.800 C 284.414 128.240,284.690 128.949,285.013 129.376 C 285.336 129.804,285.606 130.614,285.613 131.176 C 285.620 131.739,285.890 132.549,286.213 132.976 C 286.536 133.404,286.800 134.313,286.800 134.996 C 286.800 135.680,286.974 136.414,287.188 136.628 C 287.401 136.841,287.682 137.912,287.812 139.008 C 287.942 140.103,288.218 141.171,288.425 141.380 C 288.631 141.589,288.800 142.800,288.800 144.072 C 288.800 145.343,289.076 147.074,289.413 147.916 C 290.601 150.884,289.758 174.556,288.407 176.194 C 288.223 176.417,287.976 177.481,287.858 178.558 C 287.740 179.635,287.454 180.706,287.222 180.938 C 286.990 181.170,286.800 181.932,286.800 182.631 C 286.800 183.330,286.530 184.126,286.200 184.400 C 285.870 184.674,285.594 185.461,285.587 186.149 C 285.580 186.837,285.310 187.749,284.987 188.176 C 284.664 188.604,284.400 189.281,284.400 189.682 C 284.400 190.083,284.232 190.723,284.026 191.105 C 283.021 192.970,282.400 194.605,282.400 195.385 C 282.400 195.859,282.136 196.596,281.813 197.024 C 281.490 197.451,281.220 198.183,281.213 198.651 C 281.206 199.119,280.930 199.726,280.600 200.000 C 280.270 200.274,280.000 200.926,280.000 201.449 C 280.000 201.972,279.834 202.400,279.632 202.400 C 279.429 202.400,279.138 202.970,278.986 203.666 C 278.833 204.362,278.278 205.739,277.754 206.725 C 277.229 207.712,276.800 208.740,276.800 209.011 C 276.800 209.281,276.530 209.726,276.200 210.000 C 275.870 210.274,275.600 210.839,275.600 211.257 C 275.600 211.674,275.150 212.729,274.600 213.600 C 274.050 214.471,273.600 215.301,273.600 215.443 C 273.600 215.711,271.386 220.541,270.778 221.600 C 270.332 222.377,268.510 225.838,266.619 229.500 C 265.796 231.096,264.960 232.501,264.761 232.624 C 264.563 232.747,264.400 233.182,264.400 233.590 C 264.400 233.999,264.237 234.393,264.037 234.467 C 263.705 234.589,261.849 237.849,259.521 242.400 C 259.014 243.390,258.407 244.406,258.172 244.657 C 257.936 244.908,257.216 246.168,256.572 247.457 C 255.927 248.746,255.175 249.944,254.900 250.120 C 254.625 250.296,254.400 250.723,254.400 251.069 C 254.400 251.416,253.680 252.777,252.800 254.095 C 251.920 255.413,251.200 256.732,251.200 257.026 C 251.200 257.320,250.973 257.704,250.696 257.880 C 250.419 258.056,249.838 258.875,249.405 259.700 C 248.972 260.525,248.479 261.200,248.309 261.200 C 248.139 261.200,248.000 261.459,248.000 261.775 C 248.000 262.091,247.190 263.533,246.200 264.979 C 245.210 266.425,244.400 267.724,244.400 267.866 C 244.400 268.008,243.950 268.714,243.400 269.436 C 242.850 270.157,242.400 271.009,242.400 271.331 C 242.400 271.652,242.170 272.003,241.888 272.111 C 241.606 272.219,241.021 272.987,240.588 273.818 C 240.155 274.649,239.395 275.776,238.900 276.323 C 238.405 276.869,238.000 277.651,238.000 278.058 C 238.000 278.466,237.837 278.800,237.638 278.800 C 237.439 278.800,236.764 279.634,236.138 280.654 C 235.512 281.674,234.730 282.913,234.400 283.407 C 234.070 283.901,233.099 285.407,232.243 286.753 C 231.387 288.099,230.532 289.200,230.343 289.200 C 230.154 289.200,230.000 289.408,230.000 289.662 C 230.000 289.916,229.595 290.681,229.100 291.362 C 228.605 292.043,227.857 293.275,227.437 294.100 C 227.017 294.925,226.518 295.600,226.327 295.600 C 226.136 295.600,225.824 296.005,225.633 296.500 C 225.441 296.995,224.637 298.210,223.846 299.200 C 223.055 300.190,222.406 301.216,222.404 301.480 C 222.402 301.744,222.175 302.104,221.900 302.280 C 221.625 302.456,221.072 303.190,220.671 303.910 C 220.270 304.631,219.505 305.692,218.971 306.269 C 218.437 306.845,218.000 307.547,218.000 307.828 C 218.000 308.109,217.460 308.878,216.800 309.538 C 216.140 310.198,215.600 311.022,215.600 311.369 C 215.600 311.716,215.448 312.000,215.262 312.000 C 215.076 312.000,213.968 313.350,212.800 315.000 C 211.632 316.650,210.524 318.000,210.338 318.000 C 210.152 318.000,210.000 318.351,210.000 318.780 C 210.000 319.209,209.756 319.704,209.458 319.880 C 209.160 320.056,208.413 321.010,207.798 322.000 C 207.182 322.990,206.166 324.329,205.539 324.976 C 204.913 325.623,204.400 326.345,204.400 326.580 C 204.400 326.816,203.953 327.491,203.406 328.080 C 202.859 328.670,202.031 329.883,201.566 330.776 C 200.607 332.615,199.408 332.928,198.791 331.500 C 198.267 330.288,197.580 329.245,196.500 328.025 C 196.005 327.466,195.600 326.809,195.600 326.566 C 195.600 326.323,195.214 325.781,194.742 325.362 C 194.269 324.943,193.267 323.645,192.515 322.477 C 191.762 321.310,190.888 320.255,190.573 320.134 C 190.258 320.013,190.000 319.645,190.000 319.315 C 190.000 318.732,187.712 315.534,187.103 315.267 C 186.936 315.193,186.800 314.908,186.800 314.633 C 186.800 314.358,186.265 313.608,185.611 312.967 C 184.957 312.325,184.417 311.519,184.411 311.175 C 184.405 310.831,183.860 310.032,183.200 309.400 C 182.540 308.768,182.000 308.040,182.000 307.784 C 182.000 307.527,181.595 306.869,181.100 306.323 C 180.605 305.776,179.857 304.670,179.437 303.864 C 179.017 303.059,178.531 302.400,178.356 302.400 C 178.181 302.400,177.756 301.807,177.412 301.082 C 177.068 300.357,176.249 299.175,175.593 298.457 C 174.937 297.738,174.400 296.922,174.400 296.642 C 174.400 296.362,173.865 295.608,173.211 294.967 C 172.557 294.325,172.017 293.511,172.011 293.158 C 172.005 292.806,171.550 292.031,171.000 291.438 C 170.450 290.844,170.000 290.092,170.000 289.767 C 170.000 289.441,169.753 289.080,169.450 288.964 C 169.148 288.848,168.563 288.093,168.150 287.287 C 167.738 286.480,166.995 285.368,166.500 284.814 C 166.005 284.261,165.600 283.652,165.600 283.462 C 165.600 283.271,165.105 282.459,164.500 281.656 C 163.210 279.945,162.657 279.065,161.774 277.318 C 161.418 276.614,160.873 275.826,160.563 275.569 C 160.253 275.312,160.000 274.925,160.000 274.709 C 160.000 274.492,159.460 273.633,158.800 272.800 C 158.140 271.967,157.600 271.148,157.600 270.980 C 157.600 270.813,157.150 270.086,156.600 269.364 C 156.050 268.643,155.600 267.771,155.600 267.427 C 155.600 267.082,155.438 266.800,155.240 266.800 C 155.043 266.800,154.495 266.059,154.023 265.154 C 153.551 264.248,152.903 263.245,152.582 262.925 C 152.262 262.605,152.000 262.086,152.000 261.771 C 152.000 261.457,151.841 261.200,151.647 261.200 C 151.452 261.200,151.188 260.885,151.058 260.500 C 150.789 259.699,150.030 258.485,149.300 257.688 C 149.025 257.388,148.800 256.796,148.800 256.371 C 148.800 255.947,148.661 255.600,148.492 255.600 C 148.322 255.600,147.741 254.790,147.200 253.800 C 146.659 252.810,146.078 252.000,145.908 252.000 C 145.739 252.000,145.600 251.651,145.600 251.224 C 145.600 250.797,145.436 250.346,145.235 250.222 C 144.925 250.030,141.727 244.582,141.236 243.408 C 141.146 243.193,140.561 242.311,139.936 241.448 C 139.311 240.586,138.800 239.723,138.800 239.532 C 138.800 239.341,138.350 238.471,137.800 237.600 C 137.250 236.729,136.800 235.737,136.800 235.395 C 136.800 235.054,136.530 234.671,136.200 234.545 C 135.870 234.418,135.600 233.984,135.600 233.581 C 135.600 233.177,135.421 232.736,135.201 232.601 C 134.982 232.465,134.359 231.420,133.818 230.277 C 133.276 229.135,132.481 227.570,132.050 226.800 C 131.619 226.030,131.155 225.130,131.018 224.800 C 130.653 223.921,129.843 222.575,129.250 221.860 C 128.965 221.516,128.835 221.068,128.961 220.863 C 129.088 220.658,128.923 220.268,128.596 219.996 C 128.268 219.724,128.000 219.325,128.000 219.108 C 128.000 218.891,127.208 217.068,126.241 215.057 C 125.273 213.046,124.374 211.130,124.243 210.800 C 124.112 210.470,123.852 209.930,123.665 209.600 C 122.747 207.982,122.400 207.157,122.400 206.593 C 122.400 206.253,122.130 205.871,121.800 205.745 C 121.470 205.618,121.200 205.028,121.200 204.434 C 121.200 203.839,120.936 203.004,120.613 202.576 C 120.290 202.149,120.020 201.507,120.013 201.149 C 120.006 200.791,119.730 200.274,119.400 200.000 C 119.070 199.726,118.800 199.110,118.800 198.631 C 118.800 198.152,118.649 197.589,118.464 197.380 C 118.278 197.171,117.718 195.740,117.219 194.200 C 116.720 192.660,116.151 191.229,115.956 191.020 C 115.760 190.811,115.600 190.260,115.600 189.796 C 115.600 189.333,115.336 188.604,115.013 188.176 C 114.690 187.749,114.414 186.860,114.400 186.200 C 114.386 185.540,114.110 184.651,113.787 184.224 C 113.464 183.796,113.200 182.977,113.200 182.404 C 113.200 181.830,113.011 181.171,112.780 180.940 C 112.549 180.709,112.278 179.646,112.178 178.578 C 112.078 177.510,111.817 176.457,111.598 176.238 C 111.379 176.019,111.200 175.010,111.200 173.996 C 111.200 172.983,110.936 171.804,110.613 171.376 C 109.739 170.221,109.728 149.950,110.600 147.862 C 110.930 147.072,111.200 145.542,111.200 144.462 C 111.200 143.381,111.470 141.851,111.800 141.062 C 112.130 140.272,112.400 139.001,112.400 138.236 C 112.400 137.472,112.561 136.748,112.758 136.626 C 112.955 136.505,113.200 135.729,113.304 134.903 C 113.505 133.297,114.143 131.305,115.044 129.468 C 115.350 128.845,115.606 128.035,115.613 127.668 C 115.620 127.300,115.890 126.651,116.213 126.224 C 116.536 125.796,116.800 125.131,116.800 124.745 C 116.800 124.358,117.250 123.196,117.800 122.162 C 118.350 121.127,118.800 120.060,118.800 119.789 C 118.800 119.519,119.056 119.086,119.368 118.827 C 119.680 118.567,120.256 117.465,120.647 116.378 C 121.038 115.290,121.502 114.400,121.679 114.400 C 121.856 114.400,122.000 114.167,122.000 113.881 C 122.000 113.596,122.810 112.129,123.800 110.622 C 124.790 109.115,125.603 107.773,125.606 107.641 C 125.610 107.508,126.327 106.590,127.200 105.600 C 128.073 104.610,128.790 103.565,128.794 103.277 C 128.797 102.990,129.313 102.270,129.941 101.677 C 130.568 101.085,131.809 99.610,132.697 98.400 C 134.653 95.737,140.929 89.615,144.125 87.254 C 145.403 86.310,146.548 85.281,146.667 84.968 C 146.787 84.656,147.138 84.400,147.447 84.400 C 147.755 84.400,149.346 83.410,150.983 82.200 C 152.619 80.990,154.126 80.000,154.333 80.000 C 154.540 80.000,155.787 79.280,157.105 78.400 C 158.423 77.520,159.701 76.800,159.945 76.800 C 160.189 76.800,161.426 76.277,162.694 75.639 C 163.962 75.000,165.270 74.371,165.600 74.241 C 165.930 74.111,166.470 73.839,166.800 73.635 C 167.130 73.432,168.435 72.964,169.699 72.596 C 170.964 72.227,172.099 71.763,172.223 71.563 C 172.346 71.363,173.045 71.200,173.775 71.200 C 174.505 71.200,175.326 70.930,175.600 70.600 C 175.891 70.249,176.784 69.994,177.749 69.986 C 178.657 69.978,179.850 69.714,180.400 69.400 C 180.950 69.086,182.219 68.822,183.220 68.814 C 184.221 68.806,185.226 68.614,185.453 68.387 C 185.680 68.160,188.064 67.822,190.752 67.635 C 193.439 67.448,195.764 67.169,195.918 67.015 C 196.224 66.710,201.919 66.929,209.239 67.527 M190.454 106.216 C 189.714 106.537,188.544 106.806,187.854 106.814 C 187.164 106.822,186.150 107.086,185.600 107.400 C 185.050 107.714,184.217 107.978,183.749 107.986 C 183.281 107.994,182.674 108.270,182.400 108.600 C 182.126 108.930,181.562 109.200,181.146 109.200 C 180.730 109.200,180.077 109.357,179.695 109.548 C 179.313 109.739,178.115 110.324,177.034 110.848 C 173.994 112.321,173.200 112.812,173.200 113.222 C 173.200 113.430,172.885 113.603,172.500 113.608 C 172.115 113.612,171.082 114.242,170.204 115.008 C 169.327 115.773,168.464 116.400,168.287 116.400 C 167.794 116.400,161.419 122.841,160.566 124.200 C 160.153 124.860,159.484 125.643,159.082 125.940 C 158.679 126.238,158.181 126.868,157.976 127.340 C 157.405 128.653,156.654 129.765,156.100 130.120 C 155.825 130.296,155.600 130.791,155.600 131.220 C 155.600 131.649,155.420 132.000,155.200 132.000 C 154.980 132.000,154.800 132.326,154.800 132.724 C 154.800 133.121,154.536 133.796,154.213 134.224 C 153.890 134.651,153.620 135.293,153.613 135.651 C 153.606 136.009,153.330 136.526,153.000 136.800 C 152.670 137.074,152.394 137.771,152.387 138.349 C 152.380 138.927,152.110 139.749,151.787 140.176 C 151.464 140.604,151.200 141.513,151.200 142.196 C 151.200 142.880,150.981 143.659,150.714 143.926 C 149.677 144.963,148.656 161.216,149.571 162.131 C 149.807 162.367,150.006 163.469,150.014 164.580 C 150.022 165.691,150.286 167.050,150.600 167.600 C 150.914 168.150,151.184 169.140,151.199 169.800 C 151.213 170.460,151.490 171.349,151.813 171.776 C 152.136 172.204,152.400 172.881,152.400 173.282 C 152.400 173.683,152.573 174.323,152.785 174.705 C 152.997 175.087,153.619 176.390,154.168 177.600 C 155.350 180.204,156.802 182.787,157.500 183.527 C 157.775 183.819,158.000 184.232,158.000 184.446 C 158.000 185.468,169.065 196.455,171.035 197.390 C 171.786 197.746,172.400 198.209,172.400 198.419 C 172.400 198.628,172.738 198.800,173.151 198.800 C 173.564 198.800,174.100 199.038,174.342 199.330 C 174.584 199.621,175.821 200.353,177.091 200.956 C 178.361 201.559,179.910 202.311,180.532 202.626 C 181.155 202.942,182.066 203.200,182.556 203.200 C 183.046 203.200,183.796 203.464,184.224 203.787 C 184.651 204.110,185.570 204.380,186.267 204.387 C 186.963 204.394,187.597 204.591,187.675 204.824 C 187.803 205.208,189.353 205.468,196.600 206.318 C 200.150 206.735,210.842 205.718,211.675 204.885 C 211.942 204.618,212.822 204.400,213.631 204.400 C 214.451 204.400,215.323 204.134,215.600 203.800 C 215.874 203.470,216.605 203.200,217.225 203.200 C 217.845 203.200,218.464 203.020,218.600 202.800 C 218.736 202.580,219.184 202.400,219.595 202.400 C 220.006 202.400,220.613 202.130,220.943 201.800 C 221.273 201.470,221.790 201.200,222.091 201.200 C 222.393 201.200,222.841 200.999,223.086 200.754 C 223.633 200.207,225.154 199.302,226.100 198.960 C 226.485 198.821,226.800 198.548,226.800 198.353 C 226.800 198.159,227.042 198.000,227.339 198.000 C 227.635 198.000,228.310 197.618,228.839 197.152 C 229.367 196.685,230.720 195.618,231.845 194.780 C 233.957 193.206,238.476 188.689,238.762 187.866 C 238.851 187.610,239.616 186.610,240.462 185.644 C 241.308 184.678,242.000 183.665,242.000 183.393 C 242.000 183.121,242.226 182.711,242.501 182.482 C 242.979 182.085,245.252 177.717,246.082 175.600 C 246.298 175.050,246.727 174.090,247.037 173.468 C 247.347 172.845,247.606 171.945,247.614 171.468 C 247.622 170.990,247.886 170.150,248.200 169.600 C 248.514 169.050,248.778 168.037,248.786 167.349 C 248.794 166.661,249.070 165.451,249.400 164.662 C 250.245 162.639,250.245 148.278,249.400 146.800 C 249.086 146.250,248.822 145.057,248.814 144.149 C 248.806 143.184,248.551 142.291,248.200 142.000 C 247.870 141.726,247.600 141.012,247.600 140.412 C 247.600 139.434,247.042 137.886,245.974 135.905 C 245.768 135.523,245.600 134.960,245.600 134.654 C 245.600 134.348,245.330 133.874,245.000 133.600 C 244.670 133.326,244.400 132.842,244.400 132.524 C 244.400 132.207,243.950 131.357,243.400 130.636 C 242.850 129.914,242.400 129.216,242.400 129.082 C 242.400 126.828,230.484 115.140,225.800 112.801 C 225.140 112.471,224.456 111.976,224.280 111.701 C 224.104 111.425,223.620 111.200,223.204 111.200 C 222.788 111.200,222.345 111.034,222.219 110.831 C 222.094 110.628,221.453 110.343,220.795 110.199 C 220.138 110.055,219.600 109.785,219.600 109.600 C 219.600 109.415,219.062 109.145,218.405 109.001 C 217.747 108.857,217.106 108.572,216.981 108.369 C 216.855 108.166,216.258 108.000,215.653 108.000 C 215.048 108.000,214.204 107.736,213.776 107.413 C 213.349 107.090,212.438 106.820,211.750 106.813 C 211.063 106.806,209.735 106.530,208.800 106.200 C 206.403 105.354,192.411 105.366,190.454 106.216 M205.776 107.813 C 206.280 108.194,207.497 108.400,209.243 108.400 C 210.833 108.400,211.993 108.579,212.079 108.837 C 212.159 109.078,212.889 109.293,213.700 109.316 C 214.511 109.339,215.265 109.592,215.375 109.879 C 215.485 110.167,216.188 110.400,216.945 110.400 C 217.793 110.400,218.402 110.628,218.545 111.000 C 218.671 111.330,219.231 111.600,219.787 111.600 C 220.421 111.600,220.800 111.825,220.800 112.200 C 220.800 112.568,221.174 112.800,221.767 112.800 C 222.298 112.800,222.794 112.982,222.868 113.204 C 222.942 113.426,223.425 113.689,223.941 113.789 C 224.458 113.888,225.303 114.426,225.821 114.985 C 226.338 115.543,227.130 116.000,227.581 116.000 C 228.042 116.000,228.400 116.262,228.400 116.600 C 228.400 116.930,228.670 117.200,229.000 117.200 C 229.330 117.200,229.600 117.470,229.600 117.800 C 229.600 118.130,229.798 118.400,230.040 118.400 C 230.582 118.400,237.200 125.060,237.200 125.606 C 237.200 125.823,237.470 126.000,237.800 126.000 C 238.136 126.000,238.400 126.357,238.400 126.813 C 238.400 127.259,238.670 127.729,239.000 127.855 C 239.330 127.982,239.600 128.259,239.600 128.471 C 239.600 128.684,239.870 129.127,240.200 129.457 C 240.530 129.787,240.800 130.404,240.800 130.829 C 240.800 131.253,240.959 131.600,241.153 131.600 C 241.348 131.600,241.621 131.915,241.760 132.300 C 242.050 133.102,242.833 134.464,243.460 135.257 C 243.697 135.556,244.008 136.295,244.152 136.900 C 244.297 137.505,244.592 138.000,244.808 138.000 C 245.023 138.000,245.200 138.529,245.200 139.176 C 245.200 139.823,245.380 140.464,245.600 140.600 C 245.820 140.736,246.000 141.304,246.000 141.863 C 246.000 142.422,246.254 143.446,246.564 144.140 C 246.874 144.833,247.219 147.265,247.329 149.545 C 247.439 151.824,247.725 153.885,247.965 154.125 C 248.534 154.694,248.524 156.516,247.948 157.092 C 247.690 157.350,247.410 159.568,247.293 162.272 C 247.163 165.306,246.895 167.283,246.545 167.789 C 246.245 168.223,246.000 169.078,246.000 169.689 C 246.000 170.300,245.820 170.800,245.600 170.800 C 245.380 170.800,245.200 171.520,245.200 172.400 C 245.200 173.556,245.033 174.000,244.600 174.000 C 244.225 174.000,244.000 174.379,244.000 175.013 C 244.000 175.569,243.730 176.129,243.400 176.255 C 243.070 176.382,242.800 176.916,242.800 177.443 C 242.800 177.969,242.633 178.400,242.428 178.400 C 242.223 178.400,241.652 179.210,241.157 180.200 C 240.663 181.190,240.110 182.000,239.929 182.000 C 239.748 182.000,239.600 182.450,239.600 183.000 C 239.600 183.622,239.373 184.000,239.000 184.000 C 238.670 184.000,238.400 184.270,238.400 184.600 C 238.400 184.930,238.130 185.200,237.800 185.200 C 237.470 185.200,237.200 185.427,237.200 185.705 C 237.200 185.983,236.750 186.548,236.200 186.961 C 235.650 187.374,235.200 187.938,235.200 188.215 C 235.200 188.673,234.638 189.227,231.463 191.900 C 230.875 192.395,230.215 192.800,229.997 192.800 C 229.779 192.800,229.600 193.070,229.600 193.400 C 229.600 193.730,229.330 194.000,229.000 194.000 C 228.670 194.000,228.400 194.270,228.400 194.600 C 228.400 194.930,228.066 195.200,227.658 195.200 C 227.251 195.200,226.457 195.626,225.894 196.148 C 225.332 196.669,224.406 197.212,223.836 197.355 C 223.266 197.498,222.800 197.792,222.800 198.008 C 222.800 198.223,222.434 198.400,221.987 198.400 C 221.541 198.400,221.071 198.670,220.945 199.000 C 220.818 199.330,220.484 199.600,220.203 199.600 C 219.922 199.600,219.176 199.869,218.546 200.198 C 217.916 200.526,217.096 200.796,216.724 200.798 C 216.352 200.799,215.936 200.980,215.800 201.200 C 215.664 201.420,215.126 201.600,214.605 201.600 C 214.084 201.600,213.387 201.870,213.057 202.200 C 212.704 202.554,211.726 202.800,210.678 202.800 C 209.584 202.800,208.706 203.031,208.400 203.400 C 207.672 204.277,190.984 204.265,189.824 203.387 C 189.396 203.064,188.284 202.800,187.352 202.800 C 186.379 202.800,185.402 202.545,185.057 202.200 C 184.727 201.870,184.120 201.600,183.709 201.600 C 183.297 201.600,182.775 201.415,182.550 201.190 C 182.324 200.964,181.526 200.702,180.776 200.607 C 180.025 200.512,179.349 200.247,179.272 200.017 C 179.196 199.788,178.698 199.600,178.167 199.600 C 177.574 199.600,177.200 199.368,177.200 199.000 C 177.200 198.670,176.911 198.400,176.558 198.400 C 176.204 198.400,175.233 197.860,174.400 197.200 C 173.567 196.540,172.596 196.000,172.242 196.000 C 171.889 196.000,171.600 195.820,171.600 195.600 C 171.600 195.380,171.330 195.200,171.000 195.200 C 170.670 195.200,170.400 194.930,170.400 194.600 C 170.400 194.270,170.130 194.000,169.800 194.000 C 169.470 194.000,169.200 193.730,169.200 193.400 C 169.200 193.070,168.930 192.800,168.600 192.800 C 168.270 192.800,168.000 192.640,168.000 192.443 C 168.000 192.247,167.550 191.974,167.000 191.836 C 166.450 191.698,166.000 191.349,166.000 191.060 C 166.000 190.771,165.564 190.302,165.030 190.016 C 164.497 189.731,163.964 189.116,163.845 188.649 C 163.593 187.658,161.439 185.200,160.823 185.200 C 160.590 185.200,160.400 184.862,160.400 184.449 C 160.400 184.036,160.130 183.474,159.800 183.200 C 159.470 182.926,159.200 182.454,159.200 182.151 C 159.200 181.848,159.020 181.600,158.800 181.600 C 158.580 181.600,158.400 181.343,158.400 181.029 C 158.400 180.714,158.154 180.211,157.853 179.910 C 157.552 179.609,157.180 178.966,157.026 178.481 C 156.872 177.997,156.578 177.600,156.373 177.600 C 156.168 177.600,156.000 177.144,156.000 176.587 C 156.000 176.031,155.730 175.471,155.400 175.345 C 155.070 175.218,154.800 174.694,154.800 174.181 C 154.800 173.667,154.644 173.151,154.453 173.032 C 154.261 172.914,153.989 172.094,153.848 171.209 C 153.706 170.324,153.413 169.600,153.195 169.600 C 152.978 169.600,152.800 168.803,152.800 167.829 C 152.800 166.747,152.554 165.811,152.168 165.425 C 151.224 164.481,151.231 146.438,152.175 145.910 C 152.598 145.673,152.800 144.975,152.800 143.752 C 152.800 142.677,153.044 141.699,153.400 141.343 C 153.730 141.013,154.000 140.226,154.000 139.595 C 154.000 138.964,154.180 138.336,154.400 138.200 C 154.620 138.064,154.800 137.513,154.800 136.976 C 154.800 136.375,155.031 136.000,155.400 136.000 C 155.800 136.000,156.000 135.600,156.000 134.800 C 156.000 134.000,156.200 133.600,156.600 133.600 C 156.966 133.600,157.200 133.227,157.200 132.643 C 157.200 132.116,157.470 131.582,157.800 131.455 C 158.130 131.329,158.403 130.904,158.406 130.513 C 158.410 130.121,159.127 128.990,160.000 128.000 C 160.873 127.010,161.590 125.885,161.594 125.500 C 161.597 125.115,161.766 124.800,161.969 124.800 C 162.330 124.800,164.800 122.504,164.800 122.169 C 164.800 121.827,166.413 120.400,166.800 120.400 C 167.020 120.400,167.200 120.130,167.200 119.800 C 167.200 119.470,167.372 119.200,167.583 119.200 C 167.794 119.200,168.723 118.480,169.648 117.600 C 170.573 116.720,171.577 116.000,171.878 116.000 C 172.179 116.000,172.529 115.730,172.655 115.400 C 172.782 115.070,173.147 114.800,173.466 114.800 C 173.786 114.800,173.936 114.620,173.800 114.400 C 173.664 114.180,173.911 114.000,174.348 114.000 C 174.785 114.000,175.413 113.730,175.743 113.400 C 176.073 113.070,176.721 112.800,177.184 112.800 C 177.647 112.800,178.129 112.530,178.255 112.200 C 178.382 111.870,178.916 111.600,179.443 111.600 C 180.027 111.600,180.400 111.366,180.400 111.000 C 180.400 110.569,180.841 110.400,181.967 110.400 C 182.828 110.400,183.600 110.199,183.683 109.952 C 183.765 109.706,184.543 109.441,185.412 109.363 C 186.282 109.285,187.055 109.036,187.130 108.810 C 187.205 108.585,188.467 108.397,189.933 108.394 C 191.449 108.391,193.032 108.149,193.600 107.833 C 195.064 107.021,204.708 107.005,205.776 107.813 " stroke="none" fill="#cdcdce" fill-rule="evenodd"></path></g></svg>