<svg id="svg" xmlns="http://www.w3.org/2000/svg" xmlns:xlink="http://www.w3.org/1999/xlink" width="400" height="400" viewBox="0, 0, 400,400" version="1.1"><g id="svgg"><path id="path0" d="M62.700 45.386 C 62.480 45.473,62.186 45.502,62.047 45.450 C 61.909 45.398,61.672 45.457,61.523 45.581 C 61.373 45.705,61.113 45.754,60.946 45.690 C 60.778 45.625,60.583 45.665,60.514 45.778 C 60.444 45.890,60.264 45.935,60.114 45.878 C 59.963 45.820,59.780 45.870,59.706 45.990 C 59.633 46.109,59.495 46.159,59.400 46.100 C 59.305 46.041,59.174 46.081,59.107 46.188 C 59.041 46.295,58.855 46.332,58.694 46.270 C 58.530 46.207,58.400 46.270,58.400 46.412 C 58.400 46.552,58.341 46.607,58.268 46.535 C 58.196 46.463,58.016 46.504,57.868 46.626 C 57.721 46.749,57.600 46.788,57.600 46.713 C 57.600 46.638,57.400 46.717,57.155 46.889 C 56.911 47.060,56.506 47.200,56.255 47.200 C 56.005 47.200,55.800 47.280,55.800 47.378 C 55.800 47.581,54.229 48.296,53.850 48.265 C 53.713 48.254,53.600 48.349,53.600 48.477 C 53.600 48.605,53.263 48.887,52.850 49.104 C 52.438 49.321,51.999 49.589,51.875 49.700 C 51.750 49.810,51.451 50.035,51.210 50.200 C 50.968 50.365,50.445 50.787,50.048 51.139 C 49.650 51.490,49.229 51.723,49.112 51.656 C 48.996 51.590,48.959 51.601,49.030 51.681 C 49.101 51.761,48.876 52.119,48.530 52.476 C 45.031 56.084,42.879 60.239,41.528 66.000 C 41.256 67.157,41.223 80.016,41.221 183.000 L 41.219 298.700 41.693 300.800 C 42.583 304.737,43.938 307.850,45.980 310.651 C 47.364 312.549,83.593 348.839,84.850 349.586 C 85.262 349.832,85.600 350.115,85.600 350.216 C 85.600 350.317,85.728 350.400,85.883 350.400 C 86.039 350.400,86.197 350.467,86.233 350.550 C 86.270 350.632,87.245 351.150,88.400 351.700 C 89.555 352.250,90.563 352.787,90.639 352.894 C 90.716 353.001,90.837 353.030,90.909 352.958 C 90.981 352.886,91.387 353.008,91.812 353.230 C 92.237 353.451,92.679 353.575,92.793 353.505 C 92.907 353.434,93.000 353.469,93.000 353.582 C 93.000 353.695,93.121 353.741,93.269 353.684 C 93.417 353.627,93.890 353.701,94.319 353.849 C 94.749 353.997,95.497 354.140,95.982 354.169 C 96.467 354.197,97.023 354.305,97.217 354.409 C 97.617 354.623,335.653 354.540,336.800 354.326 C 337.185 354.253,337.725 354.162,338.000 354.123 C 338.275 354.084,338.635 353.998,338.800 353.932 C 338.965 353.866,339.325 353.778,339.600 353.737 C 339.875 353.695,340.235 353.610,340.400 353.548 C 341.340 353.192,342.720 352.800,343.036 352.800 C 343.236 352.800,343.400 352.705,343.400 352.588 C 343.400 352.472,343.490 352.432,343.600 352.500 C 343.710 352.568,343.800 352.513,343.800 352.378 C 343.800 352.244,343.853 352.186,343.917 352.250 C 343.981 352.315,344.559 352.060,345.201 351.684 C 345.842 351.308,346.426 351.000,346.497 351.000 C 346.568 351.000,346.922 350.775,347.282 350.500 C 347.643 350.225,348.042 350.000,348.169 350.000 C 348.296 350.000,348.400 349.925,348.400 349.834 C 348.400 349.743,348.795 349.384,349.278 349.037 C 353.480 346.019,357.334 339.558,358.544 333.500 C 358.848 331.977,358.785 67.332,358.480 66.000 C 356.904 59.117,353.336 53.330,348.737 50.200 C 348.333 49.925,348.002 49.633,348.001 49.550 C 348.001 49.468,347.865 49.400,347.700 49.400 C 347.535 49.400,347.400 49.310,347.400 49.200 C 347.400 49.090,347.265 49.000,347.100 49.000 C 346.935 49.000,346.800 48.910,346.800 48.800 C 346.800 48.690,346.733 48.614,346.650 48.631 C 346.568 48.649,345.600 48.224,344.500 47.688 C 343.400 47.151,342.433 46.698,342.350 46.681 C 342.268 46.664,342.132 46.628,342.050 46.601 C 341.968 46.575,341.833 46.563,341.750 46.576 C 341.668 46.589,341.600 46.500,341.600 46.379 C 341.600 46.257,341.468 46.208,341.306 46.270 C 341.145 46.332,340.959 46.295,340.893 46.188 C 340.826 46.081,340.695 46.041,340.600 46.100 C 340.505 46.159,340.367 46.109,340.294 45.990 C 340.220 45.870,340.037 45.820,339.886 45.878 C 339.736 45.935,339.557 45.893,339.490 45.783 C 339.422 45.673,339.201 45.636,339.000 45.700 C 338.799 45.764,338.577 45.724,338.507 45.611 C 338.437 45.498,338.182 45.391,337.940 45.373 C 336.266 45.248,63.016 45.261,62.700 45.386 M316.853 132.951 L 316.806 187.201 200.000 187.201 L 83.194 187.201 83.147 132.951 L 83.100 78.700 200.000 78.700 L 316.900 78.700 316.853 132.951 M261.980 221.049 C 263.005 221.259,264.047 221.626,264.550 221.953 C 264.798 222.114,265.000 222.189,265.000 222.119 C 265.000 221.987,266.625 222.761,266.800 222.977 C 266.855 223.045,267.229 223.267,267.631 223.471 C 269.777 224.561,272.784 228.228,273.972 231.203 C 275.290 234.501,275.217 231.764,275.156 275.800 L 275.100 315.700 274.527 317.400 C 273.479 320.508,272.488 322.131,270.309 324.309 C 268.911 325.707,267.400 326.961,267.400 326.724 C 267.400 326.656,267.217 326.783,266.993 327.007 C 266.769 327.231,266.499 327.361,266.393 327.295 C 266.287 327.230,266.200 327.277,266.200 327.400 C 266.200 327.523,266.110 327.568,266.000 327.500 C 265.890 327.432,265.800 327.457,265.800 327.556 C 265.800 327.800,264.816 328.233,264.585 328.091 C 264.483 328.028,264.400 328.072,264.400 328.188 C 264.400 328.305,264.332 328.385,264.250 328.368 C 264.168 328.350,263.845 328.441,263.533 328.569 C 263.221 328.698,262.890 328.756,262.797 328.698 C 262.704 328.641,262.567 328.691,262.494 328.810 C 262.420 328.930,262.237 328.980,262.086 328.922 C 261.936 328.865,261.755 328.911,261.685 329.025 C 261.614 329.139,261.337 329.177,261.069 329.110 C 260.801 329.043,260.502 329.037,260.405 329.097 C 260.308 329.157,227.440 329.194,187.364 329.179 C 147.289 329.163,114.255 329.158,113.957 329.167 C 113.658 329.176,113.365 329.105,113.306 329.010 C 113.248 328.915,113.020 328.885,112.800 328.942 C 112.567 329.003,112.400 328.948,112.400 328.812 C 112.400 328.682,112.310 328.632,112.200 328.700 C 112.090 328.768,111.888 328.753,111.750 328.667 C 111.613 328.581,111.410 328.503,111.300 328.495 C 110.828 328.457,110.000 328.144,110.000 328.003 C 110.000 327.919,109.741 327.798,109.424 327.735 C 109.107 327.671,108.709 327.480,108.538 327.310 C 108.368 327.139,108.126 327.000,108.000 327.000 C 105.801 327.000,101.121 320.573,100.103 316.153 C 99.726 314.516,99.630 236.358,100.003 234.376 C 100.819 230.031,103.625 225.842,107.288 223.499 C 108.892 222.473,110.998 221.513,111.545 221.558 C 111.795 221.579,112.000 221.497,112.000 221.376 C 112.000 221.256,112.132 221.208,112.294 221.270 C 112.455 221.332,112.645 221.289,112.716 221.174 C 112.787 221.059,113.015 221.010,113.222 221.064 C 113.430 221.118,113.650 221.081,113.711 220.982 C 113.843 220.769,260.944 220.836,261.980 221.049 M124.647 274.883 C 124.676 295.499,124.750 312.417,124.812 312.479 C 124.991 312.658,124.954 312.658,150.551 312.628 L 175.001 312.600 174.951 275.050 L 174.900 237.500 149.747 237.449 L 124.594 237.398 124.647 274.883 " stroke="none" fill="#000000" fill-rule="evenodd"></path></g></svg>