<svg id="svg" xmlns="http://www.w3.org/2000/svg" xmlns:xlink="http://www.w3.org/1999/xlink" width="400" height="400" viewBox="0, 0, 400,400" version="1.1"><g id="svgg"><path id="path0" d="M198.047 65.484 C 197.188 65.654,196.003 66.185,195.414 66.664 C 194.592 67.333,147.327 128.334,129.394 151.871 C 123.163 160.050,125.721 161.691,144.727 161.707 L 158.594 161.719 158.594 198.047 L 158.594 234.375 194.166 234.375 C 232.581 234.375,232.225 234.410,237.339 230.098 C 243.329 225.048,243.331 225.033,243.597 191.602 L 243.835 161.719 256.488 161.641 C 279.891 161.497,281.237 165.592,240.556 113.178 C 200.752 61.892,203.066 64.489,198.047 65.484 M94.470 225.214 C 88.134 229.484,88.281 228.614,88.281 261.770 C 88.281 293.797,88.232 293.280,91.462 294.951 C 94.795 296.674,305.205 296.674,308.538 294.951 C 311.768 293.280,311.719 293.797,311.719 261.770 C 311.719 223.859,311.524 223.438,294.025 223.438 L 285.156 223.438 285.156 246.484 L 285.156 269.531 200.000 269.531 L 114.844 269.531 114.844 246.484 L 114.844 223.438 105.975 223.438 C 98.044 223.438,96.827 223.625,94.470 225.214 M26.736 315.279 C 24.556 316.806,24.560 317.529,26.758 319.727 C 28.320 321.289,28.490 322.136,28.281 327.344 C 27.623 343.812,31.813 349.184,45.313 349.184 C 58.890 349.184,62.251 344.769,62.434 326.688 C 62.492 320.923,62.703 320.006,64.258 318.729 C 67.255 316.268,65.322 314.502,59.318 314.216 C 50.577 313.799,48.501 315.618,52.804 319.921 C 55.433 322.549,55.465 336.833,52.849 339.720 C 49.332 343.601,43.058 342.113,41.369 336.997 C 39.833 332.343,40.811 321.267,42.886 319.814 C 45.165 318.217,44.988 315.760,42.527 314.824 C 39.240 313.575,28.738 313.877,26.736 315.279 M225.279 314.915 C 221.984 315.869,221.527 317.513,223.856 320.026 C 226.571 322.955,226.867 342.333,224.219 343.750 C 219.515 346.268,223.465 349.219,231.538 349.219 C 240.959 349.219,244.145 347.106,240.529 343.257 C 237.735 340.283,237.657 321.568,240.430 319.727 C 246.457 315.725,235.020 312.093,225.279 314.915 M103.582 316.245 C 98.334 318.067,97.597 319.479,100.252 322.633 C 103.093 326.010,103.470 341.061,100.781 343.750 C 97.133 347.399,99.664 349.219,108.386 349.219 C 115.917 349.219,118.893 346.924,115.039 344.088 C 113.811 343.185,113.692 341.642,113.866 328.963 L 114.060 314.844 110.741 314.878 C 108.916 314.897,105.694 315.512,103.582 316.245 M197.046 315.993 C 191.283 317.792,189.616 320.452,193.359 321.875 C 197.352 323.393,195.692 324.849,190.430 324.443 C 182.599 323.840,177.344 328.769,177.344 336.719 C 177.344 345.762,187.100 352.539,193.582 347.998 C 195.162 346.892,195.368 346.892,195.793 347.998 C 196.347 349.444,201.189 349.639,205.664 348.396 C 208.868 347.507,209.720 344.876,207.422 342.969 C 206.462 342.173,206.250 339.535,206.250 328.420 L 206.250 314.844 203.320 314.896 C 201.709 314.925,198.885 315.418,197.046 315.993 M344.531 323.796 C 343.098 324.606,341.002 324.781,336.659 324.454 C 324.861 323.565,317.629 329.759,322.795 336.327 C 324.285 338.221,324.349 338.598,323.313 339.362 C 320.831 341.192,320.099 343.699,321.447 345.756 C 322.576 347.480,322.579 347.829,321.475 349.513 C 316.078 357.751,338.795 361.361,346.643 353.513 C 352.930 347.226,348.977 341.786,338.573 342.407 C 333.264 342.723,331.116 342.576,330.517 341.855 C 329.285 340.371,330.336 339.844,334.530 339.844 C 341.160 339.844,345.831 336.885,346.328 332.371 C 346.466 331.110,347.203 329.129,347.964 327.968 C 350.547 324.031,348.504 321.549,344.531 323.796 M69.989 325.646 C 64.722 327.516,63.784 329.172,66.683 331.484 C 69.729 333.916,69.666 347.134,66.594 349.994 C 62.959 353.378,68.093 357.031,76.482 357.031 C 82.736 357.031,86.084 353.732,82.031 351.563 C 78.843 349.856,80.217 348.710,85.032 349.059 C 89.308 349.368,89.784 349.224,92.571 346.777 C 103.442 337.232,94.937 318.922,82.617 325.349 C 80.749 326.324,80.469 326.323,80.469 325.344 C 80.469 323.761,74.844 323.923,69.989 325.646 M125.000 325.975 C 112.446 332.674,116.741 349.256,131.016 349.202 C 145.961 349.145,152.363 334.625,141.138 326.244 C 137.741 323.708,129.506 323.570,125.000 325.975 M157.031 324.766 C 150.994 326.950,148.710 329.197,149.619 332.061 C 150.421 334.587,153.969 334.019,157.014 330.877 C 160.087 327.707,161.958 328.314,161.563 332.355 C 161.341 334.638,161.111 334.792,157.218 335.267 C 150.531 336.083,146.973 339.584,148.133 344.207 C 149.245 348.638,157.309 350.970,161.461 348.061 C 162.921 347.039,163.226 347.039,164.074 348.061 C 165.480 349.755,170.510 349.512,172.895 347.636 C 175.741 345.398,176.187 343.374,174.259 341.446 C 172.968 340.156,172.656 338.845,172.656 334.714 C 172.656 325.908,165.851 321.576,157.031 324.766 M247.852 325.858 C 243.463 327.565,242.976 328.562,245.015 331.674 C 246.748 334.318,246.199 342.256,244.126 344.548 C 241.528 347.418,243.345 348.791,250.088 349.053 C 258.025 349.361,259.157 348.509,257.807 343.243 C 256.739 339.073,257.276 332.455,258.757 331.539 C 261.416 329.896,262.814 339.679,260.542 344.035 C 258.205 348.515,259.096 349.219,267.102 349.219 C 273.712 349.219,275.771 348.017,274.383 344.971 C 273.033 342.008,273.130 332.317,274.514 331.785 C 277.239 330.740,278.586 340.168,276.398 344.971 C 275.014 348.009,277.071 349.219,283.622 349.219 C 290.056 349.219,292.468 347.483,290.312 344.405 C 289.375 343.067,289.063 340.724,289.063 335.039 C 289.063 324.579,283.876 320.956,275.881 325.831 L 273.247 327.437 271.534 325.828 C 268.981 323.430,263.340 323.613,260.273 326.193 L 257.927 328.168 257.674 326.389 C 257.330 323.965,253.281 323.746,247.852 325.858 M300.781 324.766 C 294.744 326.950,292.460 329.197,293.369 332.061 C 294.171 334.587,297.719 334.019,300.764 330.877 C 303.837 327.707,305.708 328.314,305.313 332.355 C 305.091 334.638,304.861 334.792,300.968 335.267 C 294.281 336.083,290.723 339.584,291.883 344.207 C 292.995 348.638,301.059 350.970,305.211 348.061 C 306.671 347.039,306.976 347.039,307.824 348.061 C 309.230 349.755,314.260 349.512,316.645 347.636 C 319.491 345.398,319.937 343.374,318.009 341.446 C 316.718 340.156,316.406 338.845,316.406 334.714 C 316.406 325.908,309.601 321.576,300.781 324.766 M356.189 325.995 C 347.779 331.663,347.821 343.607,356.266 347.850 C 362.788 351.127,374.219 347.968,374.219 342.888 C 374.219 340.707,372.285 340.252,369.212 341.711 C 365.825 343.318,365.472 343.297,362.996 341.350 C 359.194 338.359,360.222 337.500,367.603 337.500 C 373.794 337.500,374.315 337.375,374.917 335.749 C 377.908 327.663,364.262 320.555,356.189 325.995 M336.719 332.359 C 336.719 335.252,334.719 337.364,333.329 335.938 C 331.394 333.950,330.977 330.072,332.532 328.518 C 334.163 326.886,336.719 329.230,336.719 332.359 M364.876 329.749 C 366.080 331.997,365.265 333.594,362.915 333.594 C 360.727 333.594,360.096 330.842,361.875 329.063 C 363.202 327.735,363.882 327.890,364.876 329.749 M133.140 331.909 C 134.996 335.498,135.546 341.673,134.116 342.860 C 132.506 344.196,130.736 341.528,129.758 336.292 C 128.648 330.351,130.855 327.491,133.140 331.909 M194.996 333.322 C 195.594 336.511,194.967 341.112,193.731 342.601 C 191.543 345.238,188.660 340.149,189.543 335.210 C 190.557 329.542,194.059 328.329,194.996 333.322 M83.940 332.986 C 86.333 336.403,84.689 343.717,81.745 342.747 C 80.827 342.444,80.073 334.189,80.793 332.314 C 81.389 330.761,82.556 331.010,83.940 332.986 M161.590 341.511 C 161.284 343.672,159.130 344.007,158.735 341.955 C 158.390 340.162,160.141 337.954,161.127 338.939 C 161.525 339.338,161.733 340.495,161.590 341.511 M305.340 341.511 C 305.034 343.672,302.880 344.007,302.485 341.955 C 302.140 340.162,303.891 337.954,304.877 338.939 C 305.275 339.338,305.483 340.495,305.340 341.511 M338.281 351.191 C 338.281 354.164,330.436 354.421,328.872 351.499 C 328.119 350.092,328.384 350.000,333.176 350.000 C 337.230 350.000,338.281 350.245,338.281 351.191 " stroke="none" fill="#000000" fill-rule="evenodd"></path></g></svg>